<svg width="24" height="24" viewBox="0 0 24 24" fill="none" xmlns="http://www.w3.org/2000/svg">
<path d="M4.19512 13.2318C6.31409 13.2318 8.03185 11.5015 8.03185 9.367C8.03185 7.23253 6.31409 5.5022 4.19512 5.5022C2.07616 5.5022 0.358398 7.23253 0.358398 9.367C0.358398 11.5015 2.07616 13.2318 4.19512 13.2318Z" fill="#62DBFB"/>
<path d="M4.19531 5.5022C3.87192 5.5022 3.55786 5.54251 3.25781 5.6184C4.92361 6.03981 6.15704 7.55833 6.15704 9.367C6.15704 11.1757 4.92361 12.6942 3.25781 13.1156C3.55786 13.1915 3.87192 13.2318 4.19531 13.2318C6.31426 13.2318 8.03204 11.5015 8.03204 9.367C8.03204 7.23254 6.3143 5.5022 4.19531 5.5022Z" fill="#01D0FB"/>
<path d="M12.0066 8.08117C14.1256 8.08117 15.8434 6.35084 15.8434 4.21637C15.8434 2.08189 14.1256 0.351562 12.0066 0.351562C9.88768 0.351562 8.16992 2.08189 8.16992 4.21637C8.16992 6.35084 9.88768 8.08117 12.0066 8.08117Z" fill="#FE93D3"/>
<path d="M12.0068 0.351562C11.6834 0.351562 11.3694 0.391875 11.0693 0.467766C12.7351 0.889173 13.9686 2.40764 13.9686 4.21637C13.9686 6.02509 12.7351 7.54356 11.0693 7.96497C11.3694 8.04086 11.6834 8.08117 12.0068 8.08117C14.1258 8.08117 15.8436 6.35082 15.8436 4.21637C15.8436 2.08191 14.1258 0.351562 12.0068 0.351562Z" fill="#FE73C5"/>
<path d="M19.8182 13.2318C21.9371 13.2318 23.6549 11.5015 23.6549 9.367C23.6549 7.23253 21.9371 5.5022 19.8182 5.5022C17.6992 5.5022 15.9814 7.23253 15.9814 9.367C15.9814 11.5015 17.6992 13.2318 19.8182 13.2318Z" fill="#6FD7A3"/>
<path d="M19.8184 5.5022C19.495 5.5022 19.1809 5.54251 18.8809 5.6184C20.5467 6.03981 21.7801 7.55828 21.7801 9.367C21.7801 11.1757 20.5467 12.6942 18.8809 13.1156C19.1809 13.1915 19.495 13.2318 19.8184 13.2318C21.9373 13.2318 23.6551 11.5015 23.6551 9.367C23.6551 7.23254 21.9373 5.5022 19.8184 5.5022Z" fill="#3EC3A4"/>
<path d="M10.0797 23.6485V21.6848L5.88242 16.7868C5.17854 15.9262 6.30706 14.7072 7.21977 15.361L10.0797 17.8951C10.0797 17.8951 10.0763 8.33687 10.0753 8.09176C10.0701 6.7838 12.1075 6.78441 12.1075 8.09227V14.577V13.6487C12.1075 12.3518 14.1217 12.3574 14.1217 13.6487V14.1401V14.1342C14.1217 12.8364 16.1359 12.8771 16.1359 14.1828V15.6936V14.8139C16.1359 13.509 18.1619 13.5299 18.1619 14.911L18.164 18.7995C18.164 19.6018 17.8647 20.3746 17.3253 20.9649L16.6583 21.6847L16.6569 23.6484H10.0797V23.6485Z" fill="#FFE3CB"/>
<path d="M18.1614 14.911C18.1614 13.6093 16.3615 13.5159 16.1547 14.6022C16.1792 14.6962 16.1925 14.7992 16.1925 14.911L16.1946 18.7996C16.1946 19.6018 15.8952 20.3747 15.3559 20.965L14.6889 21.6848L14.6875 23.6485H16.6564L16.6578 21.6848L17.3248 20.965C17.8642 20.3747 18.1635 19.6018 18.1635 18.7996L18.1614 14.911Z" fill="#FEDBBD"/>
<path d="M8.38281 9.36697C8.42627 6.00964 4.49846 3.94348 1.78753 5.91734C1.6291 6.02961 1.59164 6.24898 1.70386 6.40747C1.81613 6.56591 2.03555 6.60336 2.19399 6.49114C4.4513 4.84836 7.7162 6.57223 7.67964 9.36707C7.67969 11.3042 6.11626 12.8803 4.19452 12.8803C1.62099 12.9127 -0.109313 10.0383 1.09538 7.76061C1.18378 7.58774 1.11525 7.37596 0.942376 7.28755C0.769548 7.19914 0.557719 7.26763 0.469313 7.44055C-0.976877 10.1762 1.10325 13.6222 4.19452 13.5834C6.50397 13.5833 8.38281 11.6918 8.38281 9.36697Z" fill="black"/>
<path d="M3.01491 11.2238C3.15689 11.2238 3.29063 11.1371 3.34383 10.9965L3.53738 10.4846H4.85372L5.04516 10.9955C5.11327 11.1773 5.31587 11.2695 5.49774 11.2014C5.67957 11.1333 5.77173 10.9306 5.70362 10.7488L4.59169 7.78085C4.59052 7.77766 4.58925 7.77452 4.58794 7.77133C4.52316 7.61261 4.36922 7.51066 4.19939 7.51038C4.02816 7.51052 3.87582 7.61331 3.81136 7.77213C3.81033 7.77475 3.8093 7.77733 3.80832 7.77995L2.68622 10.7478C2.60517 10.9621 2.79286 11.2238 3.01491 11.2238ZM4.19855 8.73583L4.59029 9.78143H3.80321L4.19855 8.73583Z" fill="black"/>
<path d="M13.3758 4.90763C13.3758 4.53492 13.2 4.20286 12.9277 3.99014C13.3977 3.32142 12.8919 2.34754 12.0682 2.35973H11.2002C11.006 2.35973 10.8486 2.51714 10.8486 2.7113V5.72152C10.8486 5.89655 11.0236 6.07308 11.2018 6.07308C11.2018 6.07308 11.9999 6.06947 12.2199 6.06947C12.8572 6.06943 13.3758 5.54822 13.3758 4.90763ZM12.0683 3.06281C12.5128 3.0773 12.5123 3.73139 12.0671 3.74498C11.8953 3.74573 11.7236 3.74602 11.5518 3.74578V3.06281H12.0683ZM11.5518 4.44989C11.7745 4.44896 11.9972 4.44863 12.2198 4.44886C12.8192 4.47038 12.8189 5.34488 12.2198 5.36625C12.0972 5.36625 11.7956 5.36738 11.5518 5.36836V4.44989Z" fill="black"/>
<path d="M19.8182 5.15063C17.5087 5.15063 15.6299 7.04209 15.6299 9.367C15.8409 14.9531 23.7963 14.9515 24.0065 9.36696C24.0065 7.04209 22.1276 5.15063 19.8182 5.15063ZM19.8182 12.8802C17.8964 12.8802 16.333 11.3042 16.333 9.367C16.5087 4.71245 23.1284 4.71371 23.3033 9.36705C23.3033 11.3042 21.7399 12.8802 19.8182 12.8802Z" fill="black"/>
<path d="M21.0486 10.1771C20.8995 10.0529 20.6777 10.0731 20.5535 10.2224C19.8981 10.9334 18.7092 10.2778 18.7398 9.36707C18.728 8.45971 19.7775 7.8913 20.5201 8.40965C20.6806 8.51887 20.8992 8.47729 21.0085 8.31679C21.1177 8.15629 21.0761 7.93762 20.9156 7.82835C19.7178 6.99116 18.0178 7.9034 18.0368 9.36712C17.9951 10.9225 20.0367 11.8988 21.094 10.6722C21.2181 10.523 21.1979 10.3013 21.0486 10.1771Z" fill="black"/>
<path d="M18.1634 18.448C17.9692 18.448 17.8118 18.6054 17.8118 18.7996C17.8118 19.516 17.5466 20.2008 17.0668 20.726L16.3998 21.4458C16.3397 21.5107 16.3062 21.596 16.3061 21.6845L16.3047 23.6482C16.3045 23.8423 16.4619 23.9998 16.656 24H16.6563C16.8503 24 17.0077 23.8428 17.0078 23.6486L17.0091 21.8226L17.5842 21.202C18.1844 20.5451 18.5149 19.6919 18.5149 18.7995C18.5149 18.6054 18.3575 18.448 18.1634 18.448Z" fill="black"/>
<path d="M16.487 15.6937V14.8139C16.4985 13.9306 17.8287 14.0457 17.8099 14.9112L17.8109 16.758C17.811 16.9521 17.9684 17.1094 18.1625 17.1094H18.1627C18.3568 17.1093 18.5142 16.9518 18.5141 16.7577L18.513 14.9111C18.5361 13.8155 17.3191 13.1541 16.4007 13.6867C16.1082 12.8856 15.0352 12.5903 14.3391 13.048C14.0274 12.3753 13.1016 12.1449 12.4585 12.4774V8.40747C17.6868 7.64903 17.2856 0.192938 12.0063 0C7.83001 0.0195 6.25904 5.52109 9.75733 7.77377C9.67501 8.13972 9.74908 14.6182 9.72737 17.1136L7.45248 15.0979C6.94604 14.6488 6.12343 14.8013 5.69026 15.263C5.21569 15.7689 5.18264 16.487 5.60982 17.0093C5.61155 17.0113 5.61324 17.0134 5.61502 17.0155L9.72765 21.8148V23.6484C9.72765 23.8426 9.88506 24 10.0792 24C10.2734 24 10.4308 23.8426 10.4308 23.6484V21.6847C10.4308 21.6008 10.4008 21.5197 10.3462 21.456L6.15179 16.5613C5.90724 16.2593 6.0263 15.9326 6.20312 15.744C6.37627 15.5594 6.68771 15.4229 7.00107 15.6373L9.84606 18.1581C9.94961 18.2499 10.0974 18.2724 10.2235 18.2156C10.3497 18.1588 10.4308 18.0333 10.4308 17.8949C10.4306 17.5046 10.4274 8.33331 10.4264 8.09031C10.4254 7.8475 10.5202 7.66909 10.7079 7.56001C10.9312 7.43036 11.2442 7.43003 11.4689 7.55936C11.658 7.6682 11.7543 7.84633 11.7553 8.08848V8.089C11.7553 8.08952 11.7554 8.09003 11.7554 8.09055C11.7548 8.08961 11.7561 14.5771 11.7555 14.5771C11.7703 15.0418 12.4441 15.0418 12.4586 14.5771V13.6488C12.4586 13.2722 12.7473 13.0297 13.1125 13.0297C13.5977 13.0297 13.7698 13.3632 13.7698 13.6488V15.0602C13.7838 15.5242 14.4585 15.5253 14.4729 15.0602C14.4729 15.0547 14.4729 14.1391 14.4729 14.1343C14.4729 13.6909 14.8121 13.5335 15.1026 13.5335C15.3557 13.5335 15.7841 13.6703 15.7841 14.1828V15.6937C15.797 16.1569 16.4728 16.1594 16.487 15.6937ZM10.3547 6.95204C10.257 7.00881 10.1697 7.07645 10.0931 7.153C7.23095 5.25146 8.55573 0.717564 12.0064 0.703126C16.3857 0.861189 16.7366 7.0495 12.4064 7.70617C12.3169 7.38526 12.1141 7.11944 11.8196 6.94993C11.3806 6.69728 10.7919 6.69812 10.3547 6.95204Z" fill="black"/>
</svg>
