<svg width="23" height="20" viewBox="0 0 23 20" fill="none" xmlns="http://www.w3.org/2000/svg">
<path d="M21.6522 0.153192C20.6305 -0.39694 19.491 0.664029 18.823 1.29275C17.2905 2.78597 15.9938 4.51495 14.5398 6.08675C12.9287 7.81574 11.4355 9.54473 9.78509 11.2345C8.84201 12.1776 7.82033 13.1992 7.19161 14.3781C5.77699 13.0027 4.55884 11.5095 2.98703 10.2914C1.84748 9.4269 -0.0386908 8.79818 0.000604326 10.8808C0.0791946 13.5923 2.4762 16.5001 4.24448 18.3469C4.99109 19.1328 5.97346 19.958 7.11302 19.9973C8.48835 20.0759 9.90298 18.4255 10.7282 17.5217C12.1822 15.9499 13.361 14.1816 14.697 12.5705C16.426 10.4486 18.1942 8.36587 19.8839 6.20464C20.9449 4.86861 24.285 1.56775 21.6522 0.153192Z" fill="#40C1A3"/>
</svg>
