<svg width="24" height="24" viewBox="0 0 24 24" fill="none" xmlns="http://www.w3.org/2000/svg">
<path d="M11.9998 23.0779C18.1174 23.0779 23.0767 18.1186 23.0767 12.001C23.0767 5.88338 18.1174 0.924072 11.9998 0.924072C5.88216 0.924072 0.922852 5.88338 0.922852 12.001C0.922852 18.1186 5.88216 23.0779 11.9998 23.0779Z" fill="#EBBA0C"/>
<path fill-rule="evenodd" clip-rule="evenodd" d="M21.8335 9.46154C22.0431 10.2729 22.1538 11.124 22.1538 12C22.1538 17.604 17.604 22.1538 12 22.1538C6.396 22.1538 1.84615 17.604 1.84615 12C1.84615 6.396 6.396 1.84615 12 1.84615C12.8769 1.84615 13.7271 1.95785 14.5385 2.16646C15.0323 2.29385 15.5363 1.99662 15.6628 1.50369C15.7902 1.00985 15.4929 0.505846 15 0.379385C14.0409 0.132 13.0357 0 12 0C5.37692 0 0 5.37692 0 12C0 18.6231 5.37692 24 12 24C18.6231 24 24 18.6231 24 12C24 10.9643 23.868 9.95908 23.6215 9.00092C23.4942 8.50708 22.9902 8.20985 22.4972 8.33723C22.0034 8.46461 21.7062 8.96769 21.8335 9.46154ZM11.0769 6.19015C10.6108 6.28431 10.1695 6.49292 9.79662 6.80308C9.79662 6.80308 9.79662 6.804 9.79569 6.804C9.132 7.35692 8.74615 8.17477 8.74154 9.03969C8.73692 9.90369 9.11446 10.7252 9.77262 11.2855L12.9572 13.9957C13.2009 14.2043 13.3412 14.5089 13.3394 14.8302C13.3375 15.1505 13.1945 15.4542 12.948 15.6591L12.9462 15.6618C12.7283 15.8428 12.4126 15.9249 12.1634 15.8972C11.9142 15.8686 11.6151 15.7089 11.4508 15.4948C10.9625 14.8588 10.5166 14.2782 10.5166 14.2782C10.2065 13.8738 9.62677 13.7982 9.22246 14.1083C8.81815 14.4185 8.74246 14.9982 9.05262 15.4025C9.05262 15.4025 9.49846 15.9831 9.98677 16.6191C10.2766 16.9975 10.6523 17.2938 11.0769 17.4877V18.8169C11.0769 19.2868 11.4295 19.7409 12 19.7409C12.5188 19.7409 12.9231 19.2794 12.9231 18.8086V17.676C13.3615 17.5763 13.7751 17.3732 14.1277 17.0797C14.1286 17.0788 14.1295 17.0788 14.1305 17.0778C14.7951 16.524 15.1809 15.7043 15.1855 14.8394C15.1902 13.9745 14.8126 13.1511 14.1535 12.5908L10.9689 9.87969C10.7262 9.67292 10.5858 9.36831 10.5877 9.04892C10.5895 8.72954 10.7326 8.42677 10.9782 8.22185L10.9791 8.22092C11.1969 8.04 11.5126 7.95877 11.7618 7.98738C12.0102 8.01508 12.3166 8.18677 12.4717 8.39077C12.9932 9.07662 13.4806 9.71815 13.4806 9.71815C13.7889 10.1243 14.3686 10.2028 14.7738 9.89538C15.1791 9.58708 15.2585 9.00739 14.9502 8.60123C14.9502 8.60123 14.4628 7.95969 13.9412 7.27385C13.6689 6.91477 13.3191 6.62862 12.9231 6.43292V5.184C12.9231 4.67446 12.5095 4.26092 12 4.26092C11.4905 4.26092 11.0769 4.67446 11.0769 5.184V6.19015ZM18.4615 3.69231H15.6923C15.1828 3.69231 14.7692 4.10585 14.7692 4.61538C14.7692 5.12492 15.1828 5.53846 15.6923 5.53846H18.4615V8.30769C18.4615 8.81723 18.8751 9.23077 19.3846 9.23077C19.8942 9.23077 20.3077 8.81723 20.3077 8.30769V5.53846H23.0769C23.5865 5.53846 24 5.12492 24 4.61538C24 4.10585 23.5865 3.69231 23.0769 3.69231H20.3077V0.923077C20.3077 0.413538 19.8942 0 19.3846 0C18.8751 0 18.4615 0.413538 18.4615 0.923077V3.69231Z" fill="black"/>
</svg>
