<svg width="23" height="24" viewBox="0 0 23 24" fill="none" xmlns="http://www.w3.org/2000/svg">
<path d="M15.2695 21.2747L13.058 21.4336L10.8993 23.65H2.58496L9.99819 17.95L12.1809 14.3118C12.5467 13.7021 13.3927 13.6079 13.8837 14.1224L17.9793 17.2601C18.5983 17.7343 18.6367 18.6535 18.0593 19.1776L16.3378 20.7404C16.0379 21.0161 15.6669 21.2017 15.2695 21.2747Z" fill="#FED9A8"/>
<path d="M17.9795 17.26L16.9781 16.4929C17.0858 16.9218 16.9649 17.3992 16.6065 17.7246L14.885 19.2874C14.5851 19.5632 14.2141 19.7488 13.8167 19.8217L11.6052 19.9807L8.03125 23.65H10.8995L13.0582 21.4336L15.2697 21.2747C15.6671 21.2017 16.0381 21.0162 16.338 20.7404L18.0595 19.1776C18.6369 18.6534 18.5985 17.7343 17.9795 17.26Z" fill="#F4C28C"/>
<path d="M14.8623 15.4744L15.2756 15.919C15.0429 15.9438 14.8045 15.8648 14.6358 15.6833L14.2598 15.2789C14.4759 15.2391 14.7044 15.3046 14.8623 15.4744Z" fill="#E8D06B"/>
<path d="M20.1867 19.2789L17.561 21.4873L10.6387 12.0195L12.0013 10.8734L20.1867 19.2789Z" fill="#F7BC14"/>
<path d="M2.30566 8.1453L4.5679 10.8351C6.17215 12.7425 8.69946 13.6798 11.3764 13.36L12.9637 13.1704L13.4225 11.6391C14.1964 9.0566 13.7062 6.40605 12.102 4.49862L9.83974 1.80884L2.30566 8.1453Z" fill="#FED130"/>
<path d="M12.102 4.49862L9.83974 1.80884L8.22363 3.16807L10.6089 5.99173C12.2131 7.89916 12.7033 10.5497 11.9294 13.1322L11.8792 13.3L12.9637 13.1704L13.4226 11.6391C14.1964 9.05665 13.7062 6.40605 12.102 4.49862Z" fill="#F7BC14"/>
<path d="M10.5528 2.09356L2.46504 8.89573C2.34725 8.99483 2.17142 8.97964 2.07237 8.86184L1.56054 8.25331C1.46145 8.13551 1.47664 7.95968 1.59444 7.86064L9.6822 1.05847C9.79999 0.959376 9.97582 0.974563 10.0749 1.09236L10.5866 1.70089C10.6857 1.81869 10.6706 1.99452 10.5528 2.09356Z" fill="#FFB125"/>
<path d="M10.5862 1.70089L10.0744 1.09236C9.9753 0.974563 9.79952 0.959376 9.68173 1.05847L8.25293 2.26016L9.12354 3.2953L10.5523 2.09361C10.6701 1.99452 10.6852 1.81869 10.5862 1.70089Z" fill="#FF901D"/>
<path d="M8.04552 7.23596L9.49297 7.87036C9.51153 7.87852 9.53291 7.87697 9.55016 7.86628L10.8934 7.03355C10.9367 7.00664 10.9921 7.04119 10.9871 7.09195L10.831 8.66461C10.829 8.68477 10.8371 8.70464 10.8525 8.71772L12.0596 9.73786C12.0986 9.77081 12.0829 9.83414 12.033 9.84506L10.4891 10.1826C10.4693 10.1869 10.4529 10.2008 10.4452 10.2195L9.84805 11.6827C9.82878 11.73 9.76367 11.7346 9.73789 11.6905L8.93975 10.3265C8.92953 10.309 8.91135 10.2976 8.8911 10.2961L7.31497 10.1803C7.26407 10.1766 7.23955 10.1161 7.27349 10.078L8.32414 8.89739C8.3376 8.88225 8.3428 8.86144 8.33792 8.84175L7.961 7.30697C7.94881 7.25747 7.99878 7.21547 8.04552 7.23596Z" fill="white"/>
<path d="M22.1522 19.0891L17.2201 23.2372C17.006 23.4173 16.6819 23.365 16.5353 23.1266L15.7202 21.8008C15.6014 21.6076 15.642 21.3566 15.8155 21.2106L20.3963 17.3579C20.5699 17.212 20.8242 17.2151 20.9942 17.3652L22.1607 18.3956C22.3703 18.5808 22.3663 18.9091 22.1522 19.0891Z" fill="#FFB125"/>
<path d="M22.1604 18.3956L20.994 17.3652C20.824 17.2151 20.5697 17.212 20.3961 17.3579L19.0596 18.482L20.9199 20.1253L22.152 19.0891C22.3662 18.9091 22.3702 18.5808 22.1604 18.3956Z" fill="#FF901D"/>
<path d="M17.1632 19.1047C17.4973 19.4646 18.0598 19.4854 18.4196 19.1512L19.5322 18.1175C19.8918 17.7835 19.9126 17.2213 19.5787 16.8616C19.2446 16.5018 18.6821 16.481 18.3223 16.8152L17.2097 17.8489C16.8501 18.1828 16.8293 18.7451 17.1632 19.1047Z" fill="#F4C28C"/>
<path d="M17.2097 17.8487L18.3223 16.815C18.6821 16.4809 19.2446 16.5016 19.5787 16.8615C19.7724 17.0701 19.8465 17.3469 19.8045 17.6078C19.466 17.3195 18.9578 17.3237 18.624 17.6338L17.5114 18.6674C17.3604 18.8077 17.2694 18.9882 17.2391 19.177C17.2127 19.1545 17.1873 19.1306 17.1632 19.1046C16.8293 18.745 16.8501 18.1828 17.2097 17.8487Z" fill="#FED9A8"/>
<path d="M16.2713 17.5007C16.6104 17.866 17.1814 17.8871 17.5466 17.5479L18.6396 16.5325C19.0045 16.1934 19.0256 15.6227 18.6867 15.2576C18.3476 14.8923 17.7766 14.8712 17.4114 15.2105L16.3184 16.2259C15.9535 16.565 15.9324 17.1356 16.2713 17.5007Z" fill="#F4C28C"/>
<path d="M16.3184 16.2259L17.4114 15.2105C17.7766 14.8712 18.3476 14.8923 18.6867 15.2576C18.881 15.4669 18.9567 15.7437 18.9175 16.0057C18.574 15.7067 18.0531 15.709 17.7119 16.0259L16.6189 17.0413C16.4632 17.186 16.3703 17.373 16.341 17.5681C16.3169 17.5471 16.2935 17.5246 16.2713 17.5007C15.9324 17.1356 15.9535 16.565 16.3184 16.2259Z" fill="#FED9A8"/>
<path d="M15.0379 16.1898C15.377 16.5551 15.9481 16.5762 16.3132 16.237L17.4062 15.2216C17.7712 14.8825 17.7923 14.3118 17.4534 13.9467C17.1143 13.5814 16.5432 13.5603 16.178 13.8996L15.0851 14.915C14.72 15.254 14.699 15.8247 15.0379 16.1898Z" fill="#F4C28C"/>
<path d="M15.085 14.915L16.178 13.8996C16.5432 13.5603 17.1142 13.5814 17.4533 13.9467C17.4767 13.9719 17.4982 13.9982 17.5182 14.0252C17.3199 14.0391 17.1248 14.1181 16.9679 14.264L15.8749 15.2794C15.5351 15.5951 15.4935 16.1114 15.7628 16.4758C15.4999 16.4943 15.2312 16.3981 15.0379 16.1898C14.699 15.8247 14.7201 15.254 15.085 14.915Z" fill="#FED9A8"/>
<path d="M13.8494 14.8298C14.1885 15.1951 14.7596 15.2162 15.1247 14.877L16.2177 13.8616C16.5827 13.5225 16.6038 12.9518 16.2649 12.5867C15.9258 12.2214 15.3547 12.2003 14.9895 12.5396L13.8965 13.555C13.5316 13.8941 13.5105 14.4647 13.8494 14.8298Z" fill="#F4C28C"/>
<path d="M13.8965 13.555L14.9895 12.5396C15.3547 12.2003 15.9258 12.2215 16.2649 12.5867C16.4589 12.7957 16.5347 13.0722 16.4958 13.334C16.1522 13.0344 15.631 13.0365 15.2896 13.3537L14.1966 14.3691C14.0406 14.514 13.9476 14.7013 13.9185 14.8967C13.8946 14.8759 13.8715 14.8536 13.8494 14.8298C13.5105 14.4647 13.5316 13.8941 13.8965 13.555Z" fill="#FED9A8"/>
<path d="M15.9376 15.5203L15.7349 15.7086C15.416 16.0049 14.9239 15.9936 14.6355 15.6833L14.1252 15.1344C13.8754 14.8657 13.4487 14.8574 13.1741 15.1157C13.3278 17.4929 9.99805 17.95 9.99805 17.95L11.4133 14.4689C11.5005 14.2092 11.6516 13.9739 11.8523 13.785L12.8575 12.839C13.3461 12.3791 14.1056 12.3937 14.5506 12.8717L15.9926 14.4204C16.2815 14.7309 16.2569 15.2236 15.9376 15.5203Z" fill="#FED9A8"/>
<path d="M11.335 7.12649C11.3505 6.96951 11.277 6.82017 11.1431 6.73668C11.0092 6.65324 10.8427 6.65301 10.7086 6.73617L9.49423 7.48898L8.18567 6.91546C8.04111 6.85209 7.87639 6.87581 7.75559 6.97738C7.6348 7.07901 7.58314 7.23735 7.62083 7.39054L7.96156 8.77809L7.01178 9.84529C6.90683 9.96318 6.87847 10.1272 6.93772 10.2735C6.99697 10.4198 7.13159 10.5179 7.28895 10.5294L8.71391 10.6341L9.4355 11.8674C9.51012 11.9949 9.644 12.071 9.78992 12.071C9.79981 12.071 9.80984 12.0706 9.81983 12.07C9.97719 12.0588 10.112 11.9611 10.1717 11.815L10.7116 10.4921L12.1076 10.1869C12.2617 10.1531 12.381 10.037 12.4189 9.88387C12.4568 9.73077 12.4055 9.57243 12.2851 9.47057L11.1938 8.54835L11.335 7.12649ZM11.3871 9.62798L10.414 9.84074C10.2816 9.86971 10.172 9.96191 10.1209 10.0873L9.7445 11.0095L9.2413 10.1495C9.17291 10.0328 9.05159 9.95723 8.91641 9.94719L7.92303 9.87421L8.58533 9.12998C8.67528 9.02882 8.70969 8.88993 8.67744 8.7584L8.43987 7.79109L9.35192 8.19079C9.47595 8.24531 9.61878 8.23518 9.73419 8.16374L10.5808 7.63888L10.4825 8.63005C10.469 8.76487 10.5228 8.89757 10.6263 8.98509L11.3871 9.62798Z" fill="black"/>
<path d="M22.3925 18.1332L21.2261 17.1029C20.9286 16.8401 20.4751 16.8346 20.1713 17.0901L20.119 17.1341C20.0675 16.9483 19.9732 16.7724 19.835 16.6235C19.6661 16.4416 19.4517 16.3171 19.2154 16.2612C19.3517 15.8427 19.2636 15.3643 18.9436 15.0196C18.716 14.7743 18.4065 14.6325 18.0722 14.6202C18.0621 14.6198 18.0521 14.6199 18.0421 14.6198C18.0574 14.2952 17.9478 13.9651 17.7099 13.7087C17.4851 13.4665 17.1803 13.3254 16.8507 13.31C16.8804 12.9695 16.772 12.6182 16.5217 12.3487C16.2941 12.1035 15.9846 11.9616 15.6503 11.9493C15.3159 11.9367 14.9969 12.0555 14.7517 12.2832L14.5856 12.4375C14.3443 12.2633 14.0556 12.1644 13.749 12.1543C13.7104 12.153 13.672 12.1536 13.6337 12.1551L13.7582 11.7396C13.9815 10.9945 14.1204 9.6437 14.1163 9.71616C14.1284 9.72198 14.1402 9.72802 14.1525 9.73351C14.3238 9.80991 14.5083 9.84788 14.6921 9.84788C14.9028 9.84788 15.1125 9.79796 15.2999 9.69873C15.6901 9.4922 15.967 9.06048 15.989 8.6244C16.01 8.20942 15.8145 7.84299 15.4388 7.59254C15.2779 7.48543 15.0606 7.52884 14.9535 7.68967C14.8463 7.85049 14.8898 8.06776 15.0507 8.17496C15.2178 8.28629 15.2983 8.4256 15.29 8.58906C15.2803 8.78134 15.1468 8.98787 14.9725 9.08012C14.8127 9.16477 14.6077 9.17016 14.4376 9.09423C14.3289 9.0458 14.1881 8.94273 14.1342 8.72696C13.9736 8.08435 14.3418 7.44652 14.768 6.70806C15.5401 5.37039 16.5009 3.70571 14.4896 1.3284L13.6566 0.343841C13.4889 0.145513 13.2539 0.0246221 12.9951 0.00334089C12.7363 -0.0179403 12.4847 0.0629659 12.2868 0.231247C11.7501 0.687575 11.4711 1.37856 11.5404 2.07957L11.582 2.50014C11.6033 2.71581 11.5203 2.92768 11.3604 3.07271L11.8114 3.60896C12.1479 3.31506 12.3225 2.87668 12.2785 2.43128L12.2369 2.01071C12.1902 1.53803 12.3783 1.07214 12.7401 0.76445C12.7953 0.717528 12.8653 0.694841 12.9377 0.700887C13.0099 0.706794 13.0754 0.740544 13.1223 0.795856L13.9552 1.78042C15.6486 3.78203 14.9264 5.0334 14.1618 6.35813C14.0421 6.56537 13.9216 6.77453 13.8125 6.98659C13.5233 5.99284 13.0394 5.06893 12.3702 4.27332L10.7684 2.36893L10.7774 2.36139C10.906 2.25329 10.9847 2.10165 10.9992 1.93436C11.0136 1.76701 10.962 1.60412 10.8539 1.47564L10.3422 0.867153C10.2341 0.738622 10.0824 0.659872 9.91513 0.645434C9.74784 0.631044 9.58495 0.682512 9.45637 0.790606L1.36875 7.59277C1.10348 7.81585 1.06917 8.21317 1.29225 8.47852L1.80403 9.08701C1.91212 9.21554 2.06376 9.29429 2.23111 9.30873C2.24957 9.31032 2.26795 9.31112 2.28623 9.31112C2.43393 9.31112 2.5755 9.2597 2.68978 9.16351L2.69882 9.15587L3.30037 9.87113C3.13096 10.0016 2.91018 10.0465 2.703 9.98977L2.29551 9.87793C1.61629 9.69146 0.888091 9.84999 0.34781 10.3021C0.148638 10.4688 0.0264352 10.7031 0.00379457 10.9619C-0.0188929 11.2206 0.0607008 11.4725 0.227904 11.6713L1.05801 12.6583C3.06234 15.0414 4.8652 14.375 6.31382 13.8394C6.96759 13.5977 7.54846 13.383 8.06999 13.4583C8.16679 13.4855 8.2642 13.5113 8.36235 13.535C8.37852 13.5413 8.39465 13.5478 8.41073 13.5549C8.61431 13.6443 8.69217 13.8005 8.72165 13.9158C8.76777 14.0963 8.72788 14.2973 8.61754 14.4406C8.49726 14.5969 8.27118 14.6935 8.07998 14.6708C7.91746 14.6514 7.79371 14.5486 7.7121 14.3651C7.63359 14.1886 7.42682 14.1091 7.2501 14.1876C7.07353 14.2661 6.99403 14.4729 7.07254 14.6496C7.25606 15.0622 7.58437 15.3166 7.99692 15.3658C8.04248 15.3713 8.08837 15.3739 8.13445 15.3739C8.52735 15.3739 8.93099 15.1807 9.17198 14.8677C9.41423 14.5531 9.49935 14.1325 9.39965 13.7425C9.39735 13.7336 9.39459 13.7249 9.3921 13.7161C9.71038 13.752 10.0333 13.7708 10.3596 13.7708C10.7092 13.7708 11.0629 13.7499 11.4183 13.7075L11.4493 13.7038C11.2899 13.8939 11.1658 14.1124 11.0856 14.3466L9.70996 17.7303L2.37201 23.3726C2.25323 23.4639 2.20575 23.6208 2.25403 23.7627C2.30226 23.9046 2.43548 24 2.58534 24H10.8996C10.9941 24 11.0845 23.9618 11.1503 23.8943L11.6134 23.4188C11.7483 23.2803 11.7454 23.0588 11.6069 22.9239C11.4684 22.7891 11.2469 22.7919 11.112 22.9304L10.752 23.3001H3.61462L10.2119 18.2274C10.2168 18.2237 10.2211 18.2196 10.2257 18.2157C10.2289 18.213 10.2321 18.2104 10.2351 18.2076C10.2463 18.1974 10.2567 18.1866 10.2662 18.1753C10.2681 18.173 10.2698 18.1706 10.2717 18.1683C10.2804 18.1574 10.2884 18.1461 10.2956 18.1344C10.297 18.1322 10.2985 18.1301 10.2998 18.1278C10.308 18.1139 10.3152 18.0995 10.3214 18.0847C10.3218 18.0837 10.3224 18.0828 10.3228 18.0818L11.738 14.6007C11.7407 14.594 11.7433 14.5872 11.7456 14.5803C11.8143 14.3758 11.9343 14.1889 12.0927 14.0399L13.0978 13.0938C13.2704 12.9314 13.493 12.8461 13.7259 12.8538C13.9458 12.8611 14.1479 12.9521 14.295 13.1101C14.2949 13.1101 14.295 13.1101 14.295 13.1101L15.737 14.6588C15.737 14.6589 15.737 14.6588 15.737 14.6589C15.7371 14.6589 15.7369 14.6588 15.737 14.6588L15.737 14.6589C15.7371 14.659 15.7369 14.6588 15.737 14.6588C15.7369 14.6588 15.7371 14.6589 15.737 14.6588C15.8104 14.7377 15.8485 14.8418 15.8445 14.9521C15.8403 15.0705 15.7889 15.1813 15.7 15.2639L15.4973 15.4522C15.3571 15.5824 15.1579 15.607 15.0032 15.5282C14.9992 15.526 14.995 15.5242 14.9908 15.5221C14.9549 15.5022 14.9216 15.4765 14.8923 15.445L14.382 14.896C14.1996 14.6999 13.9504 14.5868 13.6804 14.5778C13.4037 14.5688 13.1385 14.6691 12.9348 14.8608C12.9158 14.8787 12.8991 14.8985 12.8847 14.9197C12.8489 14.9728 12.8281 15.0349 12.8251 15.0994C12.8245 15.1123 12.8246 15.1253 12.8255 15.1383C12.8255 15.1388 12.8255 15.1392 12.8255 15.1397C12.8272 15.1663 12.8284 15.1926 12.8291 15.2187C12.8294 15.2334 12.8294 15.248 12.8295 15.2626C12.8296 15.2739 12.8298 15.2852 12.8296 15.2963C12.8294 15.315 12.8288 15.3335 12.8281 15.3519C12.8279 15.3586 12.8277 15.3653 12.8273 15.372C12.8263 15.3928 12.8249 15.4135 12.8232 15.434C12.8229 15.4366 12.8227 15.4394 12.8225 15.442C12.8215 15.4508 12.8207 15.4596 12.8204 15.4684C12.7877 15.7924 12.6706 16.0823 12.466 16.3479C12.348 16.501 12.3765 16.7207 12.5296 16.8387C12.6827 16.9566 12.9025 16.9281 13.0204 16.775C13.1416 16.6177 13.2411 16.452 13.3191 16.2787L16.2957 20.3497L16.2246 20.4094C16.1802 20.4247 16.1381 20.4489 16.1013 20.4828C15.854 20.7104 15.5512 20.8637 15.2248 20.9271L13.0334 21.0846C12.9479 21.0908 12.8676 21.1281 12.8077 21.1895L12.2483 21.7639C12.1134 21.9023 12.1163 22.1239 12.2548 22.2588C12.3228 22.325 12.4109 22.358 12.4989 22.358C12.59 22.358 12.681 22.3227 12.7496 22.2523L13.2162 21.7732L15.295 21.6238C15.299 21.6235 15.3028 21.6227 15.3068 21.6223C15.3158 21.7477 15.3533 21.8719 15.4223 21.9841L16.2375 23.3099C16.3607 23.5103 16.5646 23.6468 16.7968 23.6843C16.8398 23.6913 16.883 23.6947 16.9258 23.6947C17.1147 23.6947 17.2989 23.6285 17.4456 23.5051L22.3777 19.357C22.5577 19.2056 22.6626 18.9839 22.6655 18.7486C22.6684 18.5132 22.5689 18.289 22.3925 18.1332ZM6.07115 13.1829C4.63635 13.7134 3.2812 14.2143 1.5937 12.2079L0.763591 11.2209C0.716997 11.1654 0.694779 11.0952 0.701107 11.023C0.707435 10.9508 0.741513 10.8854 0.797107 10.839C1.16137 10.5341 1.65239 10.4273 2.11036 10.5529L2.51784 10.6648C2.94703 10.7825 3.40579 10.6861 3.75154 10.4076L4.30054 11.0604C4.97132 11.8579 5.80092 12.4943 6.73312 12.9497C6.51121 13.0203 6.29024 13.1019 6.07115 13.1829ZM13.0877 11.5387L12.8235 12.4205C12.7515 12.4689 12.6827 12.5234 12.6181 12.5841L12.2833 12.8993L11.3354 13.0125C8.78727 13.317 6.35751 12.4187 4.83618 10.6098L3.23451 8.70545L3.85978 8.17956C4.00771 8.05515 4.02675 7.83437 3.90234 7.68648C3.77798 7.53854 3.55715 7.51937 3.40926 7.64387L2.51629 8.39485C2.51625 8.3949 2.5162 8.39495 2.51615 8.39495C2.51611 8.39499 2.51606 8.39504 2.51601 8.39509L2.29382 8.58198L1.87373 8.08252L9.85246 1.37209L10.2726 1.87159L10.0507 2.0582C10.0506 2.05834 10.0504 2.05843 10.0502 2.05853C10.0501 2.05862 10.0499 2.05881 10.0498 2.0589L4.67142 6.58234C4.52353 6.70679 4.50445 6.92753 4.62886 7.07542C4.75321 7.22335 4.97395 7.24229 5.12193 7.11802L10.2329 2.8194L11.8346 4.72379C13.3559 6.53274 13.8244 9.0804 13.0877 11.5387ZM18.9471 16.9278C19.0909 16.9332 19.2241 16.9942 19.3221 17.0997C19.489 17.2796 19.5119 17.5492 19.3821 17.7538L17.8573 19.0363C17.6931 19.0501 17.5336 18.9895 17.4195 18.8666C17.2175 18.6489 17.2301 18.3074 17.4477 18.1052L17.6686 17.9C17.7089 17.8705 17.748 17.8388 17.7852 17.8043L18.6386 17.0115C18.7299 16.9534 18.8362 16.9242 18.9471 16.9278ZM17.6912 15.4321C17.7873 15.3587 17.9035 15.3192 18.0253 15.3192C18.0323 15.3192 18.0393 15.3193 18.0463 15.3196C18.1937 15.325 18.3302 15.3876 18.4306 15.4957C18.6378 15.7188 18.6248 16.0689 18.4018 16.2761L18.2002 16.4633C18.16 16.4927 18.1211 16.5242 18.084 16.5587L17.2296 17.3525C17.1357 17.4126 17.0261 17.4432 16.9125 17.4388C16.765 17.4333 16.6285 17.3708 16.5281 17.2626C16.3346 17.0541 16.3333 16.7348 16.516 16.5248C16.5279 16.5145 16.5398 16.5042 16.5514 16.4934L17.6444 15.478C17.6605 15.463 17.6761 15.4478 17.6912 15.4321ZM15.8363 13.7386L15.0837 12.9301L15.2281 12.7959C15.3362 12.6955 15.4769 12.6442 15.6244 12.6487C15.7718 12.6541 15.9083 12.7167 16.0087 12.8248C16.2159 13.0479 16.2029 13.398 15.9799 13.6052L15.8363 13.7386ZM15.9736 15.965L16.1763 15.7767C16.4023 15.5668 16.5328 15.2829 16.5439 14.9775C16.5535 14.7123 16.471 14.4589 16.3105 14.2541L16.4162 14.1559C16.5243 14.0555 16.6648 14.0029 16.8125 14.0086C16.9599 14.0141 17.0964 14.0767 17.1968 14.1848C17.3905 14.3934 17.3916 14.7129 17.2088 14.9229C17.1969 14.9331 17.1851 14.9433 17.1736 14.954L16.0806 15.9694C16.0644 15.9845 16.0488 15.9998 16.0336 16.0155C15.9514 16.0784 15.8541 16.116 15.7515 16.1254C15.8299 16.0816 15.9049 16.0289 15.9736 15.965ZM13.5275 15.3778C13.5285 15.3514 13.5294 15.325 13.5297 15.2984C13.5397 15.2946 13.5501 15.2913 13.5605 15.2885C13.5917 15.2801 13.6242 15.2763 13.657 15.2775C13.7394 15.2802 13.8148 15.3141 13.8694 15.3728L14.3797 15.9217C14.4319 15.9779 14.4888 16.0273 14.5491 16.0701C14.6053 16.2021 14.6831 16.3221 14.7814 16.428C15.009 16.6732 15.3185 16.8151 15.6529 16.8274C15.6629 16.8278 15.6729 16.8278 15.683 16.828C15.6677 17.1525 15.7773 17.4826 16.0152 17.7389C16.1857 17.9226 16.4022 18.0482 16.6406 18.105C16.5013 18.5212 16.5875 18.9992 16.9065 19.3428C16.9956 19.4387 17.0983 19.5185 17.2101 19.5806L16.8325 19.8982L13.5275 15.3778ZM21.9272 18.8213L16.9951 22.9694C16.9622 22.9971 16.9266 22.9962 16.9084 22.9933C16.8902 22.9904 16.8562 22.98 16.8337 22.9433L16.0185 21.6175C15.9903 21.5716 15.9997 21.5131 16.041 21.4784L20.6218 17.6258C20.6219 17.6256 20.6218 17.6258 20.6219 17.6256L20.6218 17.6258C20.6417 17.609 20.6665 17.6006 20.6912 17.6006C20.7169 17.6006 20.7425 17.6096 20.7627 17.6274L21.9291 18.6578C21.9614 18.6863 21.9658 18.7215 21.9656 18.7401C21.9654 18.7585 21.9601 18.7936 21.9272 18.8213Z" fill="black"/>
</svg>
