<svg width="24" height="24" viewBox="0 0 24 24" fill="none" xmlns="http://www.w3.org/2000/svg">
<path d="M11.6071 23.0779C17.5245 23.0779 22.3216 18.1186 22.3216 12.001C22.3216 5.88338 17.5245 0.924072 11.6071 0.924072C5.68962 0.924072 0.892578 5.88338 0.892578 12.001C0.892578 18.1186 5.68962 23.0779 11.6071 23.0779Z" fill="#EBBA0C"/>
<path fill-rule="evenodd" clip-rule="evenodd" d="M21.1191 9.46154C21.3218 10.2729 21.429 11.124 21.429 12C21.429 17.604 17.028 22.1538 11.6074 22.1538C6.18672 22.1538 1.78575 17.604 1.78575 12C1.78575 6.396 6.18672 1.84615 11.6074 1.84615C12.4556 1.84615 13.2779 1.95785 14.0628 2.16646C14.5405 2.29385 15.028 1.99662 15.1503 1.50369C15.2735 1.00985 14.986 0.505846 14.5092 0.379385C13.5815 0.132 12.6092 0 11.6074 0C5.20099 0 0 5.37692 0 12C0 18.6231 5.20099 24 11.6074 24C18.0137 24 23.2147 18.6231 23.2147 12C23.2147 10.9643 23.087 9.95908 22.8486 9.00092C22.7254 8.50708 22.2379 8.20985 21.7611 8.33723C21.2834 8.46461 20.9959 8.96769 21.1191 9.46154ZM10.7145 6.19015C10.2636 6.28431 9.83679 6.49292 9.47607 6.80308C9.47607 6.80308 9.47607 6.804 9.47518 6.804C8.8332 7.35692 8.45998 8.17477 8.45552 9.03969C8.45105 9.90369 8.81624 10.7252 9.45286 11.2855L12.5333 13.9957C12.769 14.2043 12.9047 14.5089 12.9029 14.8302C12.9011 15.1505 12.7627 15.4542 12.5243 15.6591L12.5226 15.6618C12.3118 15.8428 12.0065 15.9249 11.7654 15.8972C11.5243 15.8686 11.235 15.7089 11.0761 15.4948C10.6038 14.8588 10.1725 14.2782 10.1725 14.2782C9.87251 13.8738 9.31178 13.7982 8.9207 14.1083C8.52963 14.4185 8.45641 14.9982 8.75642 15.4025C8.75642 15.4025 9.18767 15.9831 9.66 16.6191C9.94037 16.9975 10.3038 17.2938 10.7145 17.4877V18.8169C10.7145 19.2868 11.0556 19.7409 11.6074 19.7409C12.1092 19.7409 12.5002 19.2794 12.5002 18.8086V17.676C12.9244 17.5763 13.3244 17.3732 13.6654 17.0797C13.6663 17.0788 13.6672 17.0788 13.6681 17.0778C14.311 16.524 14.6842 15.7043 14.6887 14.8394C14.6931 13.9745 14.3279 13.1511 13.6904 12.5908L10.61 9.87969C10.3752 9.67292 10.2395 9.36831 10.2413 9.04892C10.2431 8.72954 10.3814 8.42677 10.6189 8.22185L10.6198 8.22092C10.8306 8.04 11.1359 7.95877 11.377 7.98738C11.6172 8.01508 11.9136 8.18677 12.0636 8.39077C12.5681 9.07662 13.0395 9.71815 13.0395 9.71815C13.3378 10.1243 13.8985 10.2028 14.2904 9.89538C14.6824 9.58708 14.7592 9.00739 14.461 8.60123C14.461 8.60123 13.9896 7.95969 13.4851 7.27385C13.2217 6.91477 12.8833 6.62862 12.5002 6.43292V5.184C12.5002 4.67446 12.1002 4.26092 11.6074 4.26092C11.1145 4.26092 10.7145 4.67446 10.7145 5.184V6.19015ZM17.8575 3.69231H15.1789C14.686 3.69231 14.286 4.10585 14.286 4.61538C14.286 5.12492 14.686 5.53846 15.1789 5.53846H17.8575V8.30769C17.8575 8.81723 18.2575 9.23077 18.7504 9.23077C19.2432 9.23077 19.6432 8.81723 19.6432 8.30769V5.53846H22.3218C22.8147 5.53846 23.2147 5.12492 23.2147 4.61538C23.2147 4.10585 22.8147 3.69231 22.3218 3.69231H19.6432V0.923077C19.6432 0.413538 19.2432 0 18.7504 0C18.2575 0 17.8575 0.413538 17.8575 0.923077V3.69231Z" fill="black"/>
</svg>
