<svg width="60" height="60" viewBox="0 0 60 60" fill="none" xmlns="http://www.w3.org/2000/svg">
<path d="M58.8281 35.1562V24.8438H53.2713C52.6635 22.082 51.5776 19.4998 50.1028 17.1892L54.0306 13.2614L46.7386 5.96941L42.8108 9.89719C40.5002 8.42238 37.918 7.33641 35.1562 6.72867V1.17188H24.8438V6.73512C22.086 7.34578 19.5075 8.43316 17.2007 9.90867L13.2614 5.96941L5.96941 13.2614L9.91547 17.2075C8.44652 19.5134 7.36465 22.0893 6.75844 24.8438H1.17188V35.1562H6.76488C7.37391 37.9068 8.45742 40.4788 9.92695 42.7811L5.96941 46.7386L13.2614 54.0306L17.2189 50.073C19.5212 51.5426 22.0931 52.6261 24.8438 53.2351V58.8281H35.1562V53.2416C37.9107 52.6354 40.4866 51.5534 42.7924 50.0844L46.7385 54.0305L54.0305 46.7385L50.0912 42.7992C51.5667 40.4924 52.6541 37.9139 53.2648 35.1561H58.8281V35.1562Z" fill="#4DBAF6"/>
<path d="M30.0156 47.7974C39.8532 47.7974 47.8281 39.8224 47.8281 29.9849C47.8281 20.1473 39.8532 12.1724 30.0156 12.1724C20.1781 12.1724 12.2031 20.1473 12.2031 29.9849C12.2031 39.8224 20.1781 47.7974 30.0156 47.7974Z" fill="white"/>
<path d="M25.5273 47.2272L42.2643 30.4901L37.3272 25.553L18.9424 43.9379C20.8565 45.459 23.0904 46.5947 25.5273 47.2272Z" fill="#FFB954"/>
<path d="M42.5581 42.6164L30.0427 30.1009C30.6337 27.8798 30.0599 25.4134 28.3178 23.6713C26.5742 21.9277 24.1046 21.3529 21.8821 21.9463L25.7037 25.7679L24.7082 29.4831L20.993 30.4786L17.1714 26.657C16.578 28.8795 17.1528 31.3491 18.8964 33.0927C20.641 34.8373 23.112 35.4101 25.3354 34.815L36.9224 46.402C39.0416 45.5074 40.9512 44.214 42.5581 42.6164Z" fill="#FF5D5D"/>
<path d="M42.2643 30.4903L44.7769 23.0405L37.3271 25.5531L42.2643 30.4903Z" fill="#B3B6C3"/>
<path d="M30.0147 13.3445H30.0455C30.0473 13.3445 30.0492 13.3445 30.0511 13.3445C30.6956 13.3445 31.2198 12.8235 31.2229 12.1781C31.2259 11.5309 30.7037 11.0038 30.0565 11.0007H30.0147C29.3674 11.0007 28.8428 11.5254 28.8428 12.1726C28.8428 12.8198 29.3674 13.3445 30.0147 13.3445Z" fill="#17273D"/>
<path d="M34.9314 11.6437C34.3061 11.4765 33.6638 11.8479 33.4966 12.4732C33.3293 13.0984 33.7007 13.7408 34.326 13.908C38.7815 15.0995 42.4117 18.0502 44.5519 21.8913C44.5019 21.9011 44.4522 21.9136 44.4031 21.9301L36.9534 24.4427C36.7823 24.5004 36.6269 24.5968 36.4993 24.7245L31.4192 29.8047L31.3393 29.7248C31.7699 27.2312 30.9664 24.6472 29.1621 22.843C27.1908 20.8719 24.2916 20.0945 21.5955 20.8145C21.1908 20.9225 20.8746 21.2383 20.766 21.6429C20.6575 22.0474 20.773 22.4791 21.0692 22.7754L24.4124 26.1185L23.7672 28.5266L21.3591 29.1718L18.016 25.8286C17.7197 25.5324 17.288 25.417 16.8835 25.5254C16.4789 25.634 16.1631 25.9502 16.0551 26.3548C15.3351 29.051 16.1124 31.9504 18.0836 33.9215C19.8909 35.7288 22.4786 36.5316 24.9756 36.0969L25.0513 36.1726L18.8822 42.3417C15.5028 39.2939 13.375 34.8835 13.375 29.9851C13.375 22.3442 18.5429 15.7078 25.9421 13.8464C26.5697 13.6885 26.9506 13.0517 26.7926 12.4241C26.6346 11.7964 25.9982 11.4157 25.3703 11.5735C16.9277 13.6974 11.0312 21.2686 11.0312 29.9852C11.0312 40.4532 19.5476 48.9696 30.0156 48.9696C40.4836 48.9696 49 40.4532 49 29.9852C48.9996 21.4009 43.2146 13.8587 34.9314 11.6437ZM41.758 28.3261L39.4919 26.0599L42.9114 24.9065L41.758 28.3261ZM37.3278 27.2103L40.6076 30.4902L36.3561 34.7416L33.0763 31.4619L37.3278 27.2103ZM19.7406 32.2641C18.937 31.4606 18.4165 30.4365 18.2211 29.3484L20.18 31.3073C20.476 31.6033 20.9076 31.719 21.3119 31.6106L25.0272 30.6151C25.4316 30.5067 25.7474 30.1909 25.8558 29.7864L26.8513 26.0713C26.9597 25.6668 26.8441 25.2354 26.548 24.9392L24.5891 22.9804C25.6772 23.1759 26.7012 23.6963 27.5048 24.5C28.8842 25.8793 29.4286 27.91 28.9258 29.7996C28.8183 30.2034 28.9341 30.6341 29.2296 30.9296L40.8796 42.5796C39.7681 43.5397 38.5287 44.3553 37.1907 44.9974L26.1797 33.9864C25.8837 33.6905 25.4525 33.5749 25.048 33.683C23.1559 34.1894 21.1223 33.6459 19.7406 32.2641ZM26.7084 37.8298L29.9881 41.1096L25.1871 45.9105C24.802 45.7936 24.4229 45.6629 24.05 45.5192L26.5523 43.0168C27.0099 42.5592 27.0099 41.8172 26.5523 41.3595C26.0947 40.9019 25.3526 40.9019 24.895 41.3595L21.8017 44.4528C21.44 44.2467 21.0865 44.0277 20.7423 43.7957L26.7084 37.8298ZM27.9183 46.494L31.6455 42.7668L34.8016 45.9229C33.285 46.3793 31.6785 46.6256 30.0153 46.6256C29.3051 46.6257 28.6053 46.5808 27.9183 46.494ZM42.5417 40.9271L38.0134 36.3989L43.0936 31.3188C43.2212 31.1912 43.3178 31.0357 43.3755 30.8647L45.6203 24.209C46.2921 26.0209 46.6561 27.9702 46.6561 29.9852C46.6559 34.1705 45.102 37.9996 42.5417 40.9271Z" fill="#17273D"/>
<path d="M58.8281 23.6719H54.1951C53.6189 21.456 52.7435 19.3414 51.5843 17.3651L54.8593 14.0902C55.317 13.6325 55.317 12.8905 54.8593 12.4328L47.5672 5.14066C47.1096 4.68305 46.3676 4.68305 45.9098 5.14066L42.6349 8.4157C40.6586 7.25648 38.544 6.38121 36.3281 5.80488V1.17188C36.3281 0.524648 35.8035 0 35.1562 0H24.8438C24.1965 0 23.6719 0.524648 23.6719 1.17188V5.81262C21.4595 6.39082 19.3486 7.26727 17.376 8.42672L14.0902 5.14078C13.6325 4.68316 12.8905 4.68316 12.4328 5.14078L5.14066 12.4329C4.68305 12.8905 4.68305 13.6325 5.14066 14.0903L8.43457 17.3842C7.28062 19.3554 6.40898 21.4632 5.83465 23.6719H1.17188C0.524648 23.6719 0 24.1965 0 24.8438V35.1562C0 35.8035 0.524648 36.3281 1.17188 36.3281H5.84227C6.41859 38.5331 7.29129 40.6373 8.44547 42.6052L5.14066 45.9098C4.68305 46.3675 4.68305 47.1095 5.14066 47.5672L12.4328 54.8593C12.8904 55.317 13.6324 55.317 14.0902 54.8593L17.3948 51.5545C19.3625 52.7087 21.4669 53.5813 23.6719 54.1577V58.8281C23.6719 59.4754 24.1965 60 24.8438 60H35.1562C35.8035 60 36.3281 59.4754 36.3281 58.8281V54.1654C38.5368 53.591 40.6446 52.7194 42.6159 51.5653L45.9098 54.8592C46.3675 55.3168 47.1095 55.3168 47.5672 54.8592L54.8593 47.5671C55.317 47.1095 55.317 46.3675 54.8593 45.9097L51.5734 42.6239C52.7328 40.6513 53.6093 38.5404 54.1875 36.328H58.8281C59.4754 36.328 60 35.8034 60 35.1561V24.8436C60 24.1965 59.4754 23.6719 58.8281 23.6719ZM57.6562 33.9844H53.2649C52.7153 33.9844 52.2395 34.3663 52.1207 34.9029C51.5479 37.4897 50.5329 39.934 49.104 42.1679C48.8075 42.6315 48.8735 43.2389 49.2626 43.628L52.3732 46.7386L46.7385 52.3733L43.6211 49.2558C43.2325 48.8672 42.6263 48.8007 42.1628 49.0961C39.9293 50.5189 37.4872 51.5286 34.9044 52.0971C34.3671 52.2154 33.9844 52.6914 33.9844 53.2416V57.6562H26.0156V53.2351C26.0156 52.6855 25.6337 52.2097 25.0971 52.0909C22.5177 51.5196 20.0793 50.5084 17.8495 49.0852C17.3861 48.7894 16.7791 48.8556 16.3903 49.2443L13.2614 52.3732L7.62668 46.7385L10.7556 43.6096C11.1444 43.2207 11.2106 42.6138 10.9147 42.1504C9.49137 39.9205 8.48016 37.4821 7.90898 34.9028C7.79016 34.3662 7.31438 33.9843 6.76477 33.9843H2.34375V26.0155H6.75832C7.30852 26.0155 7.78453 25.6328 7.90277 25.0955C8.47125 22.5125 9.48094 20.0706 10.9038 17.8371C11.199 17.3736 11.1327 16.7674 10.7441 16.3788L7.62656 13.2614L13.2613 7.62668L16.3719 10.7373C16.7609 11.1263 17.3682 11.1922 17.832 10.8959C20.0659 9.46699 22.5102 8.45203 25.097 7.87922C25.6336 7.76039 26.0155 7.28461 26.0155 6.735V2.34375H33.9843V6.72855C33.9843 7.27863 34.367 7.75477 34.9043 7.87301C37.4944 8.44312 39.9423 9.45645 42.1801 10.885C42.6437 11.1809 43.2505 11.1146 43.6393 10.7258L46.7385 7.62668L52.3732 13.2614L49.2741 16.3605C48.8852 16.7494 48.819 17.3563 49.1149 17.8198C50.5433 20.0576 51.5568 22.5055 52.1269 25.0956C52.2451 25.6329 52.7212 26.0156 53.2713 26.0156H57.6562V33.9844Z" fill="#17273D"/>
</svg>
