<svg width="24" height="24" viewBox="0 0 24 24" fill="none" xmlns="http://www.w3.org/2000/svg">
<path d="M13.9877 10.0122L12.9933 15.9784L7.96425 21.0075L1.99805 22.0018C4.19475 24.1986 7.75631 24.1986 9.95302 22.0018L13.9877 17.9671C14.7122 17.2426 15.1978 16.3696 15.4444 15.4461L16.9364 13.9542L15.4172 12.435C15.163 11.5479 14.6865 10.711 13.9877 10.0122Z" fill="#83A3AB"/>
<path d="M8.94505 20.9704L12.9798 16.9357C15.1765 14.739 15.6216 11.6227 13.9741 9.97516C11.7774 7.77846 8.21586 7.77846 6.01916 9.97516L1.98444 14.0099C-0.212262 16.2066 -0.212262 19.7681 1.98444 21.9649C3.632 23.6124 6.74835 23.1671 8.94505 20.9704ZM3.97321 19.9761C2.87488 18.8778 2.87488 17.097 3.97321 15.9986L8.00792 11.9639C9.10625 10.8656 10.887 10.8656 11.9854 11.9639L12.4197 15.3819C12.3017 15.5816 12.157 15.7698 11.9854 15.9414L7.95069 19.9761C6.85232 21.0744 5.07153 21.0745 3.97321 19.9761Z" fill="#93B7C0"/>
<path d="M22.0012 1.99878L20.8687 7.82689L15.635 14.0549C15.6295 14.5227 15.5668 14.99 15.4453 15.4449C16.3691 15.1986 17.2418 14.7131 17.9664 13.9885L22.0012 9.9537C24.1977 7.75714 24.1977 4.19534 22.0012 1.99878Z" fill="#93B7C0"/>
<path d="M21.0071 8.95955C23.2037 6.76298 23.6489 3.64641 22.0015 1.99898C19.8049 -0.197578 16.2431 -0.197578 14.0465 1.99898L10.0117 6.0338C7.81512 8.23036 7.81512 11.7922 10.0117 13.9888C10.7104 14.6875 11.5476 15.1641 12.4346 15.418C13.0721 14.3398 12.9275 12.9271 12.0004 12C10.902 10.9015 10.902 9.12098 12.0004 8.02252L16.0353 3.9877C17.1334 2.88961 18.9143 2.88923 20.0127 3.9877C21.1112 5.08617 21.1108 6.86705 20.0127 7.96519L15.9779 12C15.8062 12.1717 15.618 12.3162 15.4184 12.4342C15.57 12.9627 15.6417 13.5092 15.6353 14.0551C16.1032 13.7663 16.5544 13.4123 16.9723 12.9944L21.0071 8.95955Z" fill="#ACD5DF"/>
<path d="M22.2495 1.7505C21.1207 0.621703 19.6198 0 18.0234 0C16.427 0 14.9262 0.621703 13.7974 1.7505L9.76266 5.78517C9.04477 6.50306 8.54841 7.35975 8.27283 8.26955C7.33763 8.55338 6.48094 9.06694 5.78517 9.7627L1.75045 13.7974C0.621656 14.9262 0 16.427 0 18.0234C0 19.6199 0.621656 21.1207 1.7505 22.2495C2.8793 23.3783 4.38014 24 5.97656 24C7.57298 24 9.07383 23.3783 10.2026 22.2495L14.2373 18.2148C14.9552 17.4969 15.4516 16.6403 15.7271 15.7305C16.6623 15.4466 17.519 14.9331 18.2148 14.2373L22.2495 10.2026C23.3783 9.07378 24 7.57298 24 5.97656C24 4.38019 23.3783 2.87934 22.2495 1.7505ZM8.40023 12.129C8.69044 12.8983 9.14456 13.6192 9.76266 14.2374C10.362 14.8368 11.0836 15.3017 11.8704 15.6003C11.8322 15.6442 11.793 15.6874 11.7514 15.7289L7.7167 19.7636C7.25189 20.2284 6.63389 20.4844 5.97656 20.4844C5.31923 20.4844 4.70123 20.2284 4.23642 19.7636C3.27689 18.804 3.27689 17.2428 4.23642 16.2833L8.27109 12.2486C8.31267 12.207 8.35598 12.1674 8.40023 12.129ZM13.7401 17.7176L9.70542 21.7523C8.70942 22.7483 7.38516 23.2969 5.97656 23.2969C4.56797 23.2969 3.2437 22.7483 2.2477 21.7523C1.25166 20.7563 0.703125 19.432 0.703125 18.0234C0.703125 16.6148 1.25166 15.2906 2.24766 14.2946L6.28238 10.2599C6.79847 9.74377 7.41492 9.34195 8.08809 9.07809C7.96678 9.85177 7.99716 10.6448 8.17959 11.4087C8.03559 11.5112 7.8997 11.6257 7.77394 11.7514L3.73927 15.7861C3.14161 16.3837 2.8125 17.1783 2.8125 18.0234C2.8125 18.8686 3.14161 19.6631 3.73927 20.2608C4.33683 20.8584 5.13141 21.1875 5.97656 21.1875C6.82172 21.1875 7.61625 20.8584 8.21386 20.2608L12.2485 16.2261C12.8462 15.6285 13.1753 14.8339 13.1753 13.9888C13.1753 13.1436 12.8462 12.3491 12.2485 11.7514C11.289 10.7919 11.289 9.23072 12.2485 8.27119L16.2832 4.23652C16.7481 3.77166 17.3661 3.51562 18.0234 3.51562C18.6808 3.51562 19.2988 3.77166 19.7636 4.23647C20.2283 4.70123 20.4844 5.31923 20.4844 5.97656C20.4844 6.63389 20.2283 7.25189 19.7635 7.7167L15.7289 11.7514C15.6873 11.793 15.644 11.8326 15.5998 11.871C15.3096 11.1018 14.8555 10.3808 14.2373 9.7627C13.8826 9.40795 13.4858 9.09937 13.058 8.84555C12.8911 8.74659 12.6753 8.80158 12.5763 8.9685C12.4772 9.13552 12.5323 9.35114 12.6992 9.45023C13.0766 9.67416 13.4268 9.94659 13.7401 10.2599C15.7962 12.316 15.7962 15.6615 13.7401 17.7176ZM21.7523 9.70542L17.7177 13.7401C17.2015 14.2562 16.5851 14.658 15.9119 14.922C16.0332 14.1483 16.0028 13.3552 15.8204 12.5913C15.9644 12.4889 16.1003 12.3743 16.2261 12.2486L20.2607 8.21395C20.8584 7.61625 21.1875 6.82172 21.1875 5.97656C21.1875 5.13141 20.8584 4.33687 20.2607 3.73927C19.6631 3.14161 18.8686 2.8125 18.0234 2.8125C17.1783 2.8125 16.3837 3.14161 15.7861 3.73927L11.7514 7.77394C11.1538 8.37159 10.8247 9.16613 10.8247 10.0113C10.8247 10.8564 11.1538 11.6509 11.7514 12.2486C12.2162 12.7134 12.4722 13.3314 12.4722 13.9887C12.4722 14.3408 12.3981 14.6813 12.2585 14.9934C11.5105 14.7336 10.824 14.3043 10.2599 13.7401C8.20378 11.684 8.20378 8.33845 10.2599 6.28233L14.2946 2.24766C15.2906 1.25166 16.6148 0.703125 18.0234 0.703125C19.432 0.703125 20.7563 1.25166 21.7523 2.2477C22.7483 3.2437 23.2969 4.56797 23.2969 5.97656C23.2969 7.38516 22.7483 8.70942 21.7523 9.70542Z" fill="black"/>
</svg>
