<svg width="32" height="20" viewBox="0 0 32 20" fill="none" xmlns="http://www.w3.org/2000/svg">
<path d="M7.03156 20C11.0077 20 14.1472 16.7762 14.1472 12.8001C14.1472 8.82395 10.8816 5.60016 6.90549 5.60016C6.86572 5.60016 6.80572 5.60556 6.76594 5.60623C8.33806 4.35433 10.3126 3.59996 12.474 3.59996C13.4683 3.59996 14.2686 2.79368 14.2686 1.79998C14.2686 0.806284 13.6288 1.96328e-06 12.6344 2.05021e-06C5.57674 0.000675961 0.000176137 5.74241 0.000176754 12.8001C0.000176754 12.8014 0.000176754 12.8028 0.000176754 12.8048C0.000177102 16.7789 3.05677 20 7.03156 20Z" fill="#17273D"/>
<path d="M23.8955 20C27.8716 20 31.0165 16.7762 31.0165 12.8001C31.0165 8.82395 27.7536 5.60016 23.7768 5.60016C23.737 5.60016 23.6784 5.60556 23.6386 5.60623C25.2107 4.35433 27.186 3.59996 29.3473 3.59996C30.3417 3.59996 31.1426 2.79368 31.1426 1.79998C31.1426 0.806284 30.4927 1.96416e-06 29.4983 2.05109e-06C22.4407 0.000675962 16.854 5.74241 16.854 12.8001C16.854 12.8014 16.854 12.8028 16.854 12.8048C16.854 16.7789 19.9207 20 23.8955 20Z" fill="#17273D"/>
</svg>
