<svg width="24" height="24" viewBox="0 0 24 24" fill="none" xmlns="http://www.w3.org/2000/svg">
<path d="M11.9993 0.329834C5.55401 0.329834 0.329102 5.55474 0.329102 12C0.329102 18.4453 5.55401 23.6702 11.9993 23.6702C18.4446 23.6702 23.6695 18.4453 23.6695 12C23.6695 5.55474 18.4445 0.329834 11.9993 0.329834ZM11.9993 20.8525C7.11805 20.8525 3.14685 16.8813 3.14685 12C3.14685 7.11878 7.11805 3.14759 11.9993 3.14759C16.8805 3.14759 20.8517 7.11878 20.8517 12C20.8517 16.8813 16.8805 20.8525 11.9993 20.8525Z" fill="#EEF5F6"/>
<path d="M11.999 0.329834V3.14759C16.8803 3.14759 20.8515 7.11878 20.8515 12C20.8515 16.8813 16.8803 20.8525 11.999 20.8525V23.6702C18.4443 23.6702 23.6692 18.4453 23.6692 12C23.6692 5.55474 18.4443 0.329834 11.999 0.329834Z" fill="#FE76A8"/>
<path d="M11.999 0.329834V0.480255C17.5512 1.37869 21.7907 6.19428 21.7907 12C21.7907 17.8058 17.5512 22.6214 11.999 23.5198V23.6702C18.4443 23.6702 23.6692 18.4453 23.6692 12C23.6692 5.55474 18.4443 0.329834 11.999 0.329834Z" fill="#FE5694"/>
<path d="M23.6621 12.5406C23.4682 12.5259 23.299 12.6714 23.2843 12.8653C22.9595 18.4812 17.9771 23.2413 12.3512 23.3126V21.1981C24.0738 20.3874 24.065 3.60854 12.3512 2.8021V0.68752C15.079 0.771489 17.6692 1.82899 19.6788 3.68683C21.7631 5.61347 23.0407 8.22623 23.2764 11.0437C23.2926 11.2376 23.4626 11.3822 23.6567 11.3653C23.8506 11.3491 23.9946 11.1789 23.9784 10.985C23.728 7.99165 22.3709 5.21602 20.1571 3.16949C15.6229 -1.17971 7.8541 -1.03685 3.4979 3.49903C-1.16585 7.97371 -1.16609 16.0264 3.4979 20.5011C7.86542 25.0493 15.6621 25.1787 20.191 20.7995C22.411 18.7319 23.759 15.933 23.9868 12.9184C24.0015 12.7244 23.8561 12.5552 23.6621 12.5406ZM0.681092 12C0.558754 6.04876 5.70261 0.749698 11.6468 0.687426V2.80215C9.49826 2.88419 7.44919 3.71501 5.84317 5.16258C4.16242 6.67745 3.09999 8.7422 2.85156 10.9765C2.83005 11.1698 2.96939 11.344 3.16269 11.3655C3.35697 11.3869 3.53017 11.2477 3.55168 11.0544C3.78099 8.99167 4.76228 7.08504 6.31472 5.68583C11.6811 0.768342 20.5508 4.71883 20.4992 12.0002C20.4992 16.6871 16.6861 20.5003 11.999 20.5003C7.75576 20.5772 3.89248 17.0794 3.54181 12.8564C3.52232 12.663 3.34936 12.5221 3.15606 12.5412C2.96253 12.5607 2.82136 12.7334 2.8408 12.9269C3.2119 17.3724 7.18517 21.1056 11.6468 21.1979V23.3127C8.75569 23.2249 6.05046 22.0575 3.99604 20.003C1.85835 17.8654 0.681092 15.0232 0.681092 12Z" fill="black"/>
<path d="M7.44689 14.9563C10.2901 14.7478 9.82037 10.5733 6.82379 11.1705L7.05945 9.74826H8.68787C9.15308 9.73408 9.15369 9.05819 8.68787 9.04382H6.76081C6.58851 9.04382 6.44147 9.16846 6.41333 9.33847L6.03158 11.6426C5.97503 11.9843 6.33726 12.1039 6.59015 11.9899C7.1468 11.7394 7.87969 11.725 8.32894 12.1982C9.05075 12.9585 8.48635 14.2518 7.44712 14.2518C6.84159 14.2518 6.32589 13.8061 6.24211 13.2055C6.2152 13.0128 6.03646 12.8778 5.84462 12.9054C5.65193 12.9322 5.51757 13.1102 5.54443 13.3029C5.67682 14.2519 6.49101 14.9563 7.44689 14.9563Z" fill="black"/>
<path d="M11.8149 15.0214C12.8269 15.0214 13.6503 14.1981 13.6503 13.186V10.814C13.5577 8.38185 10.0712 8.38373 9.97949 10.814V13.186C9.97949 14.1981 10.8028 15.0214 11.8149 15.0214ZM10.6839 10.814C10.7409 9.31537 12.8894 9.3165 12.9458 10.814V13.186C12.8888 14.6847 10.7404 14.6836 10.6839 13.186V10.814Z" fill="black"/>
<path d="M15.0295 14.9199C15.197 14.9901 15.4196 14.9006 15.4906 14.7314L17.6687 9.54129C17.744 9.36194 17.6596 9.15549 17.4802 9.08021C17.3009 9.00507 17.0944 9.08932 17.0192 9.26872L14.841 14.4588C14.7658 14.6382 14.8501 14.8446 15.0295 14.9199Z" fill="black"/>
<path d="M15.0673 11.2989C15.6273 11.2989 16.0828 10.7951 16.0828 10.1758C16.0303 8.6875 14.1041 8.68778 14.0518 10.1758C14.0518 10.7951 14.5073 11.2989 15.0673 11.2989ZM15.0673 9.75726C15.478 9.78121 15.4777 10.5707 15.0673 10.5945C14.6567 10.5706 14.6568 9.78107 15.0673 9.75726Z" fill="black"/>
<path d="M16.4268 13.8244C16.4268 14.4436 16.8823 14.9474 17.4423 14.9474C18.7871 14.8927 18.7867 12.7557 17.4423 12.7013C16.8823 12.7013 16.4268 13.2051 16.4268 13.8244ZM17.7534 13.8244C17.7333 14.378 17.1513 14.3779 17.1312 13.8244C17.1513 13.2707 17.7333 13.2707 17.7534 13.8244Z" fill="black"/>
<path d="M19.9684 4.99771C18.286 3.08512 15.9815 1.83972 13.4769 1.48914C13.0037 1.41212 12.8876 2.10214 13.3598 2.18409C15.7049 2.50757 17.864 3.67205 19.4395 5.46297C21.0293 7.27013 21.906 9.58867 21.9081 11.9915C21.9081 11.9944 21.9082 11.9972 21.9082 12.0002C21.9082 12.0031 21.9081 12.0059 21.9081 12.0088C21.906 14.4116 21.0293 16.7301 19.4395 18.5373C17.864 20.3283 15.7049 21.4928 13.3598 21.8162C13.1855 21.8403 13.0557 21.9892 13.0557 22.1651V22.1662C13.0532 22.3854 13.262 22.5556 13.4761 22.5113C15.9808 22.1608 18.2859 20.9153 19.9684 19.0026C21.6712 17.0669 22.6103 14.5834 22.6126 12.0095C22.6126 12.0064 22.6125 12.0033 22.6125 12.0002C22.6125 11.9971 22.6126 11.994 22.6126 11.9909C22.6103 9.41688 21.6712 6.93332 19.9684 4.99771Z" fill="black"/>
</svg>
