<svg width="40" height="60" viewBox="0 0 40 60" fill="none" xmlns="http://www.w3.org/2000/svg">
<path fill-rule="evenodd" clip-rule="evenodd" d="M1.17188 1.17188H27.7226L38.3267 11.7764V51.3309H1.17188V1.17188Z" fill="#B5F2FF"/>
<path fill-rule="evenodd" clip-rule="evenodd" d="M27.7227 1.17188V11.7764H38.3268L27.7227 1.17188Z" fill="#00D8FF"/>
<path fill-rule="evenodd" clip-rule="evenodd" d="M19.9873 44.7551H30.1597V58.8282L25.0735 55.6375L19.9873 58.8282V44.7551Z" fill="#F9B450"/>
<path fill-rule="evenodd" clip-rule="evenodd" d="M25.0731 29.1938C25.9703 29.1938 26.6799 30.2897 27.4869 30.5584C28.2939 30.8267 29.4869 30.363 30.1593 30.856C30.8313 31.3485 30.7439 32.6234 31.2364 33.2959C31.729 33.9679 32.9769 34.2764 33.2456 35.0839C33.5138 35.8909 32.7095 36.9081 32.7095 37.8053C32.7095 38.703 33.5138 39.7201 33.2456 40.5272C32.9769 41.3347 31.729 41.6432 31.2364 42.3152C30.7439 42.9876 30.8313 44.2625 30.1593 44.7551C29.4869 45.2481 28.2939 44.7844 27.4869 45.0526C26.6799 45.3213 25.9703 46.4172 25.0731 46.4172C24.1759 46.4172 23.4664 45.3213 22.6593 45.0526C21.8523 44.7844 20.6593 45.2481 19.9869 44.7551C19.3149 44.2625 19.4023 42.9876 18.9098 42.3152C18.4168 41.6432 17.1694 41.3347 16.9006 40.5276C16.6319 39.7201 17.4362 38.703 17.4362 37.8053C17.4362 36.9081 16.6319 35.8909 16.9006 35.0839C17.1694 34.2764 18.4168 33.9679 18.9098 33.2959C19.4023 32.6234 19.3149 31.3485 19.9869 30.856C20.6589 30.363 21.8518 30.8267 22.6593 30.5584C23.4664 30.2897 24.1759 29.1938 25.0731 29.1938Z" fill="#FF5D5D"/>
<path fill-rule="evenodd" clip-rule="evenodd" d="M39.4967 11.7366C39.4962 11.7238 39.4958 11.7109 39.4949 11.6981C39.4912 11.6473 39.4862 11.5974 39.4761 11.548C39.4761 11.548 39.4761 11.548 39.4761 11.5475C39.466 11.4981 39.4518 11.4491 39.4358 11.4015C39.4317 11.3896 39.4276 11.3777 39.423 11.3658C39.4061 11.3205 39.3868 11.2761 39.3649 11.233C39.3635 11.2308 39.3626 11.2285 39.3612 11.2262C39.3374 11.1813 39.3099 11.1387 39.2802 11.0971C39.2729 11.0866 39.2651 11.0765 39.2573 11.066C39.2257 11.0248 39.1927 10.9849 39.1557 10.9479L28.5511 0.343322C28.5141 0.306243 28.4742 0.273284 28.433 0.241699C28.4225 0.233917 28.412 0.225677 28.4014 0.218353C28.3598 0.188598 28.3177 0.161133 28.2733 0.137787C28.2701 0.135956 28.2669 0.13504 28.2641 0.133209C28.222 0.111236 28.1781 0.0924681 28.1337 0.0755309C28.1213 0.0709533 28.1094 0.0668333 28.0966 0.0627135C28.049 0.0466919 28.0009 0.0325012 27.951 0.0224304C27.9506 0.0224304 27.9501 0.0224304 27.9501 0.0224304C27.9011 0.0128174 27.8512 0.00732421 27.8009 0.0036621C27.788 0.00320435 27.7752 0.00228881 27.7624 0.00183105C27.7491 0.00137329 27.7359 0 27.7226 0H1.17187C0.524596 0 0 0.524596 0 1.17187V51.3308C0 51.9781 0.524596 52.5027 1.17187 52.5027H18.815V58.828C18.815 59.2542 19.0466 59.647 19.4197 59.8534C19.7932 60.0599 20.2487 60.0475 20.6099 59.8209L25.0731 57.0208L29.5362 59.8209C29.7262 59.9399 29.9427 59.9999 30.1593 59.9999C30.3543 59.9999 30.5497 59.9514 30.7264 59.8539C31.0995 59.6474 31.3311 59.2547 31.3311 58.828V52.5027H38.3267C38.9739 52.5027 39.4985 51.9781 39.4985 51.3308V11.7764C39.4985 11.7631 39.4972 11.7499 39.4967 11.7366ZM28.8945 4.00131L35.4977 10.6045H28.8945V4.00131ZM18.2368 36.1958C18.1544 35.9719 18.0203 35.6062 18.0171 35.4565C18.1086 35.343 18.4263 35.142 18.6209 35.0193C19.0384 34.7557 19.5117 34.4563 19.855 33.9884C20.2015 33.5156 20.3425 32.9695 20.467 32.4879C20.5215 32.2773 20.6094 31.9372 20.6845 31.8086C20.7257 31.7999 20.8122 31.7875 20.9747 31.7875C21.1052 31.7875 21.2512 31.7948 21.4059 31.8026C21.5835 31.8113 21.7666 31.8205 21.958 31.8205C22.38 31.8205 22.7206 31.7729 23.0296 31.6699C23.5693 31.4904 24.001 31.143 24.3818 30.8363C24.5924 30.6669 24.9449 30.3831 25.0676 30.3657C25.2017 30.3831 25.5537 30.6669 25.7643 30.8363C26.1451 31.143 26.5773 31.4904 27.117 31.6699C27.426 31.7729 27.7661 31.8205 28.1886 31.8205C28.3795 31.8205 28.563 31.8113 28.7402 31.8026C28.8949 31.7948 29.0409 31.7875 29.1719 31.7875C29.3344 31.7875 29.4204 31.7994 29.4621 31.8086C29.5372 31.9372 29.625 32.2773 29.6791 32.4879C29.8036 32.9695 29.945 33.5156 30.2915 33.9884C30.6344 34.4563 31.1077 34.7552 31.5257 35.0193C31.7198 35.1425 32.0375 35.343 32.129 35.4565C32.1258 35.6062 31.9917 35.9719 31.9097 36.1958C31.7353 36.6705 31.538 37.2088 31.538 37.8053C31.538 38.4017 31.7353 38.9401 31.9093 39.4152C31.9917 39.6391 32.1258 40.0048 32.129 40.1545C32.0375 40.268 31.7198 40.4685 31.5257 40.5917C31.1077 40.8553 30.6344 41.1547 30.2915 41.6226C29.945 42.0954 29.8036 42.6415 29.6791 43.1231C29.625 43.3332 29.5367 43.6738 29.4621 43.8024C29.4204 43.8111 29.3344 43.8235 29.1719 43.8235C29.0409 43.8235 28.8949 43.8162 28.7402 43.8084C28.563 43.7997 28.3795 43.7905 28.1886 43.7905C27.7661 43.7905 27.426 43.8381 27.117 43.9411C26.5773 44.1206 26.1451 44.4685 25.7643 44.7747C25.5569 44.9423 25.2108 45.2201 25.0731 45.2448C24.9353 45.2201 24.5897 44.9423 24.3823 44.7747C24.001 44.4685 23.5693 44.1206 23.0296 43.9411C22.7206 43.8381 22.38 43.7905 21.958 43.7905C21.7671 43.7905 21.5835 43.7997 21.4059 43.8084C21.2516 43.8162 21.1056 43.8235 20.9747 43.8235C20.8122 43.8235 20.7261 43.8111 20.6845 43.8024C20.6094 43.6738 20.5215 43.3337 20.467 43.1231C20.343 42.6415 20.2015 42.0954 19.855 41.6226C19.5121 41.1547 19.0388 40.8553 18.6209 40.5917C18.4268 40.469 18.1091 40.268 18.0176 40.1545C18.0208 40.0053 18.1549 39.6391 18.2368 39.4152C18.4112 38.9405 18.6085 38.4022 18.6085 37.8057C18.6085 37.2088 18.4108 36.6705 18.2368 36.1958ZM28.9874 56.7095L25.6961 54.6445C25.3152 54.406 24.8309 54.406 24.45 54.6445L21.1587 56.7095V46.1636C21.2832 46.1599 21.4055 46.1553 21.524 46.1494C21.6792 46.1411 21.8257 46.1338 21.958 46.1338C22.1658 46.1338 22.2546 46.153 22.2889 46.1645C22.4286 46.2112 22.6968 46.4272 22.9124 46.6007C23.4594 47.0411 24.1401 47.589 25.0731 47.589C26.006 47.589 26.6867 47.0411 27.2337 46.6007C27.4493 46.4272 27.7175 46.2112 27.8567 46.1649C27.8915 46.1535 27.9803 46.1343 28.1881 46.1343C28.3204 46.1343 28.4669 46.1416 28.6221 46.1494C28.7406 46.1553 28.8629 46.1604 28.9869 46.1636V56.7095H28.9874ZM31.3311 50.1589V45.2192C31.6795 44.7459 31.8251 44.1856 31.9482 43.7095C32.0127 43.4596 32.1011 43.1176 32.1817 43.0082C32.2618 42.8983 32.5598 42.7102 32.7772 42.5729C33.354 42.2085 34.0718 41.7548 34.3569 40.897C34.6389 40.0506 34.3455 39.2509 34.1097 38.6082C34.0026 38.3166 33.8813 37.9856 33.8813 37.8053C33.8813 37.6249 34.0026 37.2944 34.1097 37.0028C34.3455 36.3601 34.6389 35.5599 34.3569 34.7135C34.0718 33.8561 33.354 33.4025 32.7772 33.0381C32.5598 32.9008 32.2618 32.7122 32.1817 32.6033C32.1011 32.4934 32.0127 32.1514 31.9482 31.9015C31.7797 31.2492 31.5701 30.4371 30.8523 29.9107C30.281 29.4923 29.6196 29.4438 29.1714 29.4438C28.9819 29.4438 28.7988 29.4529 28.6221 29.4621C28.4669 29.4699 28.3204 29.4772 28.1886 29.4772C27.9803 29.4772 27.8915 29.458 27.8572 29.4465C27.718 29.4003 27.4498 29.1842 27.2341 29.0103C26.6867 28.5704 26.006 28.0224 25.0731 28.0224C24.1406 28.0224 23.4594 28.5704 22.9124 29.0103C22.6968 29.1838 22.4286 29.4003 22.2894 29.4465C22.2551 29.458 22.1658 29.4772 21.958 29.4772C21.8261 29.4772 21.6792 29.4699 21.524 29.4616C21.3473 29.4529 21.1647 29.4438 20.9747 29.4438C20.527 29.4438 19.8655 29.4923 19.2947 29.9107C18.5765 30.4371 18.3664 31.2492 18.1979 31.9015C18.1334 32.1514 18.045 32.4934 17.9649 32.6028C17.8843 32.7122 17.5863 32.9008 17.3689 33.0381C16.7921 33.4025 16.0748 33.8561 15.7892 34.7135C15.5072 35.5604 15.8006 36.3601 16.0364 37.0028C16.1435 37.2944 16.2648 37.6249 16.2648 37.8053C16.2648 37.9856 16.1435 38.3166 16.0364 38.6082C15.8006 39.2509 15.5072 40.0506 15.7892 40.8975C16.0748 41.7548 16.7926 42.2085 17.3689 42.5729C17.5868 42.7102 17.8843 42.8988 17.9649 43.0082C18.045 43.1176 18.1334 43.4596 18.1979 43.7095C18.321 44.1856 18.4671 44.7463 18.8154 45.2192V50.1589H2.34375V2.34375H26.5507V11.7764C26.5507 12.4237 27.0753 12.9483 27.7226 12.9483H37.1548V50.1589H31.3311Z" fill="black"/>
<path fill-rule="evenodd" clip-rule="evenodd" d="M6.89844 12.9482H21.9964C22.6432 12.9482 23.1683 12.4236 23.1683 11.7764C23.1683 11.1291 22.6432 10.6045 21.9964 10.6045H6.89844C6.25116 10.6045 5.72656 11.1291 5.72656 11.7764C5.72656 12.4236 6.25162 12.9482 6.89844 12.9482Z" fill="black"/>
<path fill-rule="evenodd" clip-rule="evenodd" d="M32.7319 16.5198H6.89844C6.25116 16.5198 5.72656 17.0444 5.72656 17.6917C5.72656 18.3389 6.25116 18.8635 6.89844 18.8635H32.7319C33.3792 18.8635 33.9038 18.3389 33.9038 17.6917C33.9038 17.0444 33.3792 16.5198 32.7319 16.5198Z" fill="black"/>
<path fill-rule="evenodd" clip-rule="evenodd" d="M28.0444 22.4351H6.89844C6.25116 22.4351 5.72656 22.9601 5.72656 23.6069C5.72656 24.2542 6.25116 24.7788 6.89844 24.7788H28.0444C28.6917 24.7788 29.2163 24.2542 29.2163 23.6069C29.2163 22.9601 28.6917 22.4351 28.0444 22.4351Z" fill="black"/>
<path fill-rule="evenodd" clip-rule="evenodd" d="M32.7314 22.4351C32.086 22.4351 31.5596 22.9615 31.5596 23.6069C31.5596 24.2524 32.086 24.7788 32.7314 24.7788C33.3774 24.7788 33.9033 24.2524 33.9033 23.6069C33.9033 22.9615 33.3774 22.4351 32.7314 22.4351Z" fill="black"/>
</svg>
