<svg width="25" height="24" viewBox="0 0 25 24" fill="none" xmlns="http://www.w3.org/2000/svg">
<path d="M1.07617 13.73C1.14758 14.4997 1.29751 15.2641 1.53249 16.0019C1.7662 16.74 2.07891 17.4529 2.46264 18.1246C3.23002 19.4678 4.27986 20.6493 5.53352 21.5563L4.88876 22.4414C5.04662 22.4458 5.20246 22.4482 5.35603 22.4488C5.51087 22.4475 5.66647 22.4402 5.8182 22.4334L6.04464 22.4211C6.11963 22.4164 6.19622 22.4077 6.27103 22.4007C6.4212 22.3855 6.56906 22.3687 6.71442 22.3503C6.86133 22.3292 7.00749 22.3034 7.1503 22.278L7.36286 22.2381C7.43342 22.2237 7.50478 22.2062 7.57467 22.1899C7.71489 22.1567 7.8525 22.122 7.98748 22.0863C8.12387 22.0472 8.25875 22.0043 8.39028 21.9618C8.32232 21.8399 8.25649 21.7205 8.19438 21.5995C8.13369 21.4753 8.07559 21.3522 8.02004 21.2304C7.99244 21.1692 7.96478 21.1098 7.93911 21.048L7.86496 20.8613C7.81702 20.7371 7.77062 20.6161 7.72834 20.4935C7.68751 20.3681 7.64919 20.2442 7.61318 20.122C7.59544 20.0604 7.57713 20.0013 7.56155 19.9389L7.51677 19.7528C7.4884 19.629 7.46079 19.5093 7.43809 19.3873C7.41667 19.2634 7.39741 19.1414 7.38028 19.0214L6.73551 19.9065C5.71447 19.169 4.85954 18.2049 4.23554 17.1128C3.92349 16.5666 3.6694 15.9877 3.47944 15.3883C3.28821 14.7892 3.16702 14.1685 3.10883 13.5417L1.07617 13.73Z" fill="#FF8252"/>
<path d="M9.57422 23.3846C11.0861 23.7226 12.6618 23.736 14.1796 23.4264C15.6965 23.114 17.1433 22.4714 18.3942 21.5622L19.0382 22.4479C19.0649 22.3739 19.0925 22.3023 19.1168 22.2275L19.1877 22.0041C19.2333 21.8554 19.2784 21.7105 19.3176 21.5629C19.3924 21.2636 19.4635 20.9772 19.5111 20.6818C19.6174 20.1028 19.6596 19.5234 19.661 18.9709C19.1128 19.0779 18.5817 19.141 18.0568 19.1453C17.7999 19.1533 17.537 19.1377 17.2894 19.1222C17.1638 19.1123 17.0371 19.0965 16.9147 19.0816L16.7324 19.0573C16.6722 19.0488 16.61 19.0364 16.5499 19.0256L17.1939 19.9113C16.1752 20.6513 15.0009 21.1728 13.7689 21.427C12.5373 21.6786 11.2452 21.6675 10.0192 21.3926L9.57422 23.3846Z" fill="#FF8252"/>
<path d="M21.3798 18.2866C22.1694 16.956 22.6724 15.4539 22.8408 13.9157C22.9256 13.1466 22.9291 12.3713 22.8526 11.6014C22.7752 10.8318 22.6142 10.0699 22.3749 9.33371L23.4167 8.99598C23.2913 8.89952 23.1664 8.80584 23.0422 8.71508C22.9173 8.62452 22.7857 8.53952 22.659 8.45585C22.408 8.28727 22.1402 8.13842 21.884 7.99712C21.3562 7.72207 20.8335 7.49474 20.2994 7.32861C20.2415 7.878 20.1222 8.41139 19.9737 8.90641C19.8918 9.15762 19.8129 9.39506 19.7107 9.62976C19.6608 9.74656 19.6143 9.85902 19.5595 9.97144C19.5042 10.0841 19.4481 10.1939 19.3916 10.3008L20.4333 9.96309C20.6276 10.5609 20.7588 11.1794 20.8218 11.8059C20.884 12.4322 20.8811 13.0674 20.8119 13.6928C20.6746 14.9442 20.2665 16.1616 19.6247 17.2444L21.3798 18.2866Z" fill="#FF8252"/>
<path d="M20.178 5.48198C19.6668 4.9022 19.0972 4.37282 18.4742 3.91433C17.8521 3.45494 17.1814 3.06087 16.4763 2.7417C15.0669 2.10156 13.5175 1.76869 11.9728 1.76912L11.9734 0.674072C11.454 1.03435 10.9782 1.40912 10.5523 1.82556C10.3385 2.02586 10.1388 2.24479 9.95 2.4574L9.87972 2.53721L9.81129 2.62055L9.67764 2.78705L9.54818 2.95266C9.50566 3.0074 9.46394 3.06224 9.42383 3.12048C9.4865 3.14743 9.54941 3.17815 9.61166 3.20935L9.79614 3.30246L9.97638 3.39647L10.065 3.44395L10.1533 3.49544C10.3873 3.63329 10.6093 3.76855 10.8229 3.92377C11.248 4.2185 11.6325 4.56051 11.9715 4.90532L11.972 3.81027C13.2338 3.81041 14.4887 4.08112 15.6343 4.60101C16.2071 4.86034 16.7526 5.18065 17.2592 5.55443C17.7666 5.92731 18.2301 6.35918 18.6465 6.83126L20.178 5.48198Z" fill="#FF8252"/>
<path d="M7.62977 2.66479C6.20889 3.28035 4.92412 4.20016 3.88071 5.34156C2.8397 6.48512 2.04329 7.85144 1.56385 9.32409L0.522461 8.98542C0.544312 9.06112 0.563425 9.13521 0.588438 9.21035L0.662203 9.43315C0.712559 9.58049 0.761452 9.72453 0.816009 9.86701C0.87302 10.0101 0.931068 10.1505 0.98992 10.2881C1.01979 10.357 1.04806 10.4249 1.07978 10.4926L1.17775 10.6944C1.24359 10.8275 1.30957 10.9578 1.37715 11.0853C1.44945 11.2136 1.52236 11.339 1.5957 11.4617L1.706 11.6435C1.74441 11.7035 1.78491 11.7631 1.82436 11.8218C1.90384 11.9393 1.98355 12.054 2.06345 12.1658C2.15958 12.0635 2.25557 11.964 2.35133 11.8674C2.39942 11.8191 2.44638 11.7714 2.49523 11.7246L2.64611 11.5869C2.74649 11.4964 2.84645 11.4088 2.94584 11.3241C3.04999 11.2401 3.15453 11.159 3.25788 11.0807L3.41249 10.9653C3.46464 10.9277 3.51972 10.8915 3.57291 10.8556C3.68004 10.7839 3.78637 10.715 3.89166 10.6489C3.9994 10.5834 4.11087 10.5218 4.21871 10.4623L4.38045 10.3752C4.43335 10.3466 4.49159 10.3205 4.54643 10.294L3.50504 9.95536C3.89449 8.75993 4.54152 7.6485 5.38927 6.71665C6.23957 5.7873 7.28596 5.03866 8.43995 4.53841L7.62977 2.66479Z" fill="#FF8252"/>
<path d="M5.35983 22.8015C5.19786 22.8009 5.03777 22.7983 4.87967 22.7939L4.21022 22.7752L5.04448 21.63C3.88718 20.7334 2.89346 19.5882 2.15728 18.2996C1.76075 17.6055 1.43775 16.8683 1.1972 16.1084C0.959724 15.3628 0.801104 14.5733 0.725923 13.7626L0.693359 13.4114L3.42807 13.1581L3.46064 13.5091C3.51784 14.1252 3.63748 14.7214 3.81611 15.2811C3.99823 15.8557 4.24255 16.4129 4.54242 16.9379C5.08728 17.8915 5.81587 18.7396 6.66253 19.4088L7.60731 18.1119L7.73011 18.9715C7.74686 19.0888 7.76574 19.2085 7.78627 19.3272C7.80614 19.4339 7.83162 19.5451 7.85862 19.6628L7.90511 19.8564C7.91473 19.8947 7.92648 19.9346 7.93833 19.9749L7.95282 20.0245C7.98713 20.141 8.02455 20.2618 8.06349 20.3814C8.10342 20.497 8.14834 20.6142 8.19469 20.7342L8.26652 20.9151C8.28441 20.9578 8.30328 20.9993 8.3223 21.0413L8.34236 21.0857C8.39583 21.2029 8.45256 21.3231 8.51037 21.4415C8.57144 21.5603 8.63709 21.6789 8.6991 21.7902L8.90803 22.1653L8.49928 22.2973C8.37615 22.3371 8.23254 22.383 8.08515 22.4252L8.0784 22.4271C7.94003 22.4638 7.79821 22.4994 7.65682 22.533L7.6084 22.5443C7.55044 22.558 7.49187 22.5718 7.43382 22.5836L7.42849 22.5847L7.21593 22.6245C7.06264 22.6519 6.91535 22.6778 6.76522 22.6993L6.75923 22.7001C6.60986 22.719 6.45766 22.7363 6.30706 22.7515L6.24864 22.7573C6.19007 22.7632 6.12952 22.7692 6.06727 22.7731L5.81214 22.7868C5.66532 22.7933 5.5134 22.8002 5.35983 22.8015ZM1.46626 14.048C1.54621 14.685 1.68132 15.3047 1.86925 15.8949C2.09498 16.6077 2.39778 17.2989 2.76953 17.9497C3.51567 19.2557 4.54318 20.4041 5.74092 21.2706L6.02758 21.4779L5.58126 22.0906C5.64781 22.0881 5.71463 22.0851 5.78052 22.0822L6.02616 22.0691C6.07246 22.0661 6.124 22.061 6.17855 22.0555L6.23825 22.0496C6.38026 22.0353 6.52543 22.0188 6.668 22.0008C6.80624 21.9809 6.94607 21.9564 7.08902 21.9308L7.29578 21.892C7.34595 21.8817 7.39649 21.8698 7.44657 21.858L7.49537 21.8465C7.62227 21.8163 7.75083 21.7841 7.87665 21.751C7.8161 21.627 7.75663 21.5011 7.6999 21.3766L7.68004 21.3327C7.65753 21.2831 7.6353 21.234 7.6142 21.1833L7.61208 21.178L7.53793 20.9913C7.48753 20.861 7.43972 20.7361 7.39569 20.6083L7.39371 20.6024C7.35241 20.4755 7.31272 20.3474 7.27568 20.2215L7.26161 20.1733C7.24712 20.1239 7.23287 20.0751 7.22022 20.0244L7.187 19.8864L6.8145 20.3978L6.52977 20.1922C5.48267 19.4359 4.58367 18.4315 3.93013 17.2876C3.60543 16.7193 3.341 16.1161 3.14406 15.4947C2.98435 14.9943 2.86812 14.4674 2.79747 13.9246L1.46626 14.048Z" fill="#231F20"/>
<path d="M11.9756 24C11.1409 24 10.307 23.9095 9.49834 23.7287L9.1543 23.6518L9.75305 20.9712L10.0974 21.0484C11.2711 21.3116 12.5167 21.323 13.6994 21.0814C14.7587 20.8629 15.7886 20.4315 16.698 19.8272L15.7501 18.5234L16.6617 18.6872C16.702 18.6947 16.7428 18.7024 16.7826 18.7079L16.9761 18.7335C17.0883 18.7473 17.2042 18.7614 17.3154 18.7703C17.5789 18.7868 17.8159 18.8 18.0469 18.7927L18.055 18.7925C18.5322 18.7886 19.0358 18.7338 19.5946 18.6248L20.0159 18.5426L20.0147 18.9718C20.0131 19.5934 19.9609 20.1889 19.8597 20.7417C19.809 21.0551 19.7336 21.3566 19.6608 21.6484L19.6595 21.6534C19.6221 21.7942 19.5795 21.9331 19.5382 22.0675L19.4539 22.3342C19.4336 22.3971 19.4125 22.4543 19.3922 22.5096L19.145 23.1929L18.3142 22.0502C17.0895 22.8822 15.6922 23.4751 14.2518 23.7718C13.5056 23.9239 12.7403 24 11.9756 24ZM9.99756 23.1115C11.3481 23.3656 12.7623 23.3558 14.1101 23.0808C15.5667 22.7808 16.977 22.157 18.1879 21.2768L18.4731 21.0696L18.9182 21.6818C18.939 21.6123 18.9588 21.5437 18.9771 21.4748C19.0465 21.197 19.1182 20.91 19.164 20.6256L19.1653 20.6181C19.2363 20.2312 19.2814 19.8204 19.2998 19.3923C18.865 19.4597 18.4578 19.4943 18.0647 19.4977C17.8183 19.5051 17.5778 19.4931 17.3151 19.4769L17.6876 19.9891L17.4022 20.1964C16.3442 20.9649 15.1128 21.5098 13.8412 21.7722C12.6766 22.0101 11.4562 22.0214 10.2889 21.807L9.99756 23.1115Z" fill="#231F20"/>
<path d="M21.5036 18.7698L19.1421 17.3678L19.3218 17.0648C19.9365 16.0276 20.3307 14.8484 20.4618 13.6545C20.5281 13.0553 20.5313 12.4453 20.4713 11.8408C20.4229 11.3596 20.3319 10.8795 20.2003 10.4095L18.6738 10.9044L19.0803 10.136C19.1353 10.0319 19.1902 9.92424 19.2435 9.81592C19.2853 9.73008 19.3235 9.64036 19.3638 9.54536L19.3868 9.49132C19.4813 9.27428 19.5534 9.05931 19.6376 8.80106C19.7937 8.27966 19.8986 7.7718 19.9491 7.29165L19.9941 6.86426L20.4045 6.99192C20.9284 7.15488 21.4658 7.38141 22.0474 7.68445L22.0546 7.68836C22.3428 7.84722 22.6021 7.99262 22.856 8.16318L22.9161 8.20278C23.0256 8.27485 23.1388 8.34937 23.2496 8.42978C23.3778 8.52347 23.506 8.61979 23.6321 8.71672L24.163 9.12495L22.8146 9.56207C23.0054 10.2183 23.1361 10.8909 23.204 11.5662C23.283 12.3614 23.2789 13.1648 23.1918 13.9544C23.0189 15.5347 22.4974 17.0951 21.6836 18.4665L21.5036 18.7698ZM20.1022 17.1177L21.2519 17.8002C21.9147 16.591 22.3415 15.2422 22.4908 13.8773C22.5726 13.1361 22.5764 12.3823 22.5023 11.6363C22.4277 10.8952 22.2722 10.157 22.0401 9.44262L21.9311 9.10702L22.6519 8.87332C22.6108 8.84585 22.5694 8.81852 22.5285 8.79167L22.4651 8.74995C22.2338 8.59459 21.9898 8.45777 21.7179 8.30783C21.3228 8.10216 20.9512 7.93472 20.5922 7.80102C20.5289 8.19277 20.4351 8.59699 20.3119 9.00763L20.3094 9.01561C20.2286 9.26347 20.1533 9.48892 20.0586 9.71403L20.66 9.51907L20.769 9.85411C20.972 10.4784 21.1079 11.1232 21.173 11.7707C21.2379 12.4244 21.2344 13.0841 21.1627 13.7316C21.0337 14.9081 20.6686 16.0716 20.1022 17.1177Z" fill="#231F20"/>
<path d="M18.6158 7.32883L18.3827 7.06445C17.9715 6.59808 17.5234 6.1856 17.0512 5.83854C16.5636 5.47887 16.0385 5.17069 15.4896 4.92221C14.5017 4.47387 13.4148 4.21628 12.3252 4.17032L12.3244 5.76642L11.7208 5.15252C11.3566 4.78219 10.9872 4.46622 10.6227 4.2135L10.6164 4.20897C10.4236 4.06885 10.2206 3.94378 9.97505 3.79923L9.8936 3.75175L9.63596 3.61611L9.4536 3.52404C9.39994 3.49718 9.34171 3.46849 9.28536 3.44428L8.89062 3.27448L9.13419 2.92052C9.18002 2.85388 9.22684 2.79258 9.27054 2.73627L9.40061 2.56982L9.616 2.30397L9.68627 2.22417C9.87807 2.00826 10.0855 1.78064 10.3094 1.57067C10.7155 1.17396 11.1944 0.785783 11.7733 0.384208L12.3272 0L12.3265 1.42196C13.8043 1.46883 15.2825 1.81164 16.6231 2.42054C17.3482 2.74878 18.0419 3.15602 18.6846 3.63056C19.3121 4.0924 19.9041 4.63692 20.4435 5.24866L20.6768 5.51327L18.6158 7.32883ZM11.6203 3.45764L11.9728 3.45768C13.2789 3.45782 14.5957 3.74217 15.7807 4.27999C16.3743 4.54872 16.9425 4.8821 17.4693 5.27074C17.8916 5.58114 18.2957 5.93925 18.6738 6.33794L19.6769 5.45428C19.2364 4.9856 18.763 4.56406 18.266 4.19835C17.6627 3.75284 17.012 3.37094 16.3317 3.06295C14.9759 2.44711 13.4701 2.12171 11.9766 2.12171C11.9756 2.12171 11.9747 2.12171 11.9737 2.12171L11.6209 2.1218L11.6212 1.36844C11.3134 1.6063 11.0418 1.84086 10.7996 2.07768L10.7941 2.08296C10.5899 2.27424 10.3947 2.4885 10.2143 2.69163L10.1491 2.76567L9.96533 2.99277L10.2432 3.13945L10.3315 3.19089C10.5947 3.34588 10.8131 3.48067 11.0277 3.63631C11.2249 3.77322 11.4228 3.92632 11.62 4.09438L11.6203 3.45764Z" fill="#231F20"/>
<path d="M2.02694 12.7204L1.77719 12.3708C1.69479 12.2554 1.61258 12.1372 1.53291 12.0193L1.51413 11.9913C1.47907 11.9392 1.44362 11.8865 1.40964 11.8335L1.40521 11.8264L1.29491 11.6446C1.21837 11.5166 1.14333 11.3874 1.07065 11.2585L1.06621 11.2504C1.0034 11.1318 0.936663 11.001 0.862332 10.8507L0.760959 10.6419C0.735522 10.5875 0.712066 10.533 0.688469 10.478L0.667043 10.4283C0.606115 10.2859 0.546462 10.1414 0.489074 9.99746L0.487327 9.99302C0.43296 9.85111 0.383689 9.70693 0.336117 9.56742L0.25433 9.32102C0.23413 9.26019 0.217896 9.20228 0.20218 9.14622C0.196281 9.12526 0.190429 9.10421 0.184341 9.08312L0 8.44444L1.34376 8.88146C1.84468 7.49513 2.62735 6.19526 3.6206 5.10413C4.69667 3.92701 6.03463 2.9718 7.49024 2.34119L7.81404 2.20093L8.90404 4.72171L8.5808 4.86183C7.4792 5.33934 6.46575 6.06302 5.65009 6.95461C4.91839 7.75889 4.33743 8.71321 3.95742 9.73138L5.49081 10.23L4.65193 10.6346C4.61432 10.6524 4.57883 10.6692 4.54881 10.6854L4.38665 10.7728C4.28448 10.8292 4.17787 10.8882 4.07777 10.9489C3.97503 11.0135 3.87143 11.0807 3.76968 11.1488L3.73386 11.1729C3.6963 11.1981 3.65826 11.2236 3.62178 11.2498L3.46953 11.3634C3.35966 11.4467 3.26154 11.5232 3.17178 11.5956C3.07588 11.6774 2.97871 11.7627 2.88281 11.849L2.73698 11.9822C2.69946 12.0182 2.66307 12.0548 2.62626 12.0919L2.60186 12.1164C2.50847 12.2107 2.41375 12.3088 2.32115 12.4074L2.02694 12.7204ZM2.00594 11.4569C2.03624 11.5041 2.06781 11.551 2.09906 11.5974L2.10883 11.6119L2.12615 11.5945C2.16796 11.5525 2.2093 11.511 2.25197 11.4701L2.2582 11.4642L2.40908 11.3264C2.51262 11.2332 2.61583 11.1427 2.71773 11.0557L2.72509 11.0496C2.82136 10.9719 2.92618 10.8902 3.04544 10.7997L3.20689 10.6793C3.25041 10.6479 3.29585 10.6173 3.34074 10.5871L3.37623 10.5633C3.47142 10.4997 3.56722 10.4373 3.66241 10.377L3.06116 10.1815L3.17041 9.84601C3.5734 8.60896 4.25073 7.44472 5.12907 6.47922C5.93222 5.60141 6.91206 4.87429 7.97978 4.36115L7.44918 3.134C6.20868 3.72242 5.07088 4.56271 4.14157 5.57928C3.13634 6.68358 2.36098 8.01634 1.8998 9.43306L1.79069 9.76824L1.07055 9.53406C1.09486 9.60334 1.11935 9.67125 1.14512 9.7386C1.20005 9.87636 1.25706 10.0145 1.31474 10.1493L1.33635 10.1996C1.35669 10.247 1.37684 10.2939 1.39869 10.3409L1.49549 10.5402C1.56496 10.6806 1.62801 10.8044 1.68715 10.9161C1.75614 11.0384 1.82741 11.1611 1.89891 11.2807L2.00594 11.4569Z" fill="#231F20"/>
<path d="M11.9683 17.5287C11.9046 17.5287 11.8404 17.5274 11.7773 17.5249L11.8048 16.8203C12.0236 16.8287 12.2489 16.8199 12.4668 16.7936L12.5513 17.4937C12.3592 17.5169 12.163 17.5287 11.9683 17.5287ZM10.262 17.2178C10.0206 17.1263 9.78469 17.0144 9.5609 16.8851L9.91372 16.2745C10.1047 16.3848 10.3058 16.4802 10.5117 16.5583L10.262 17.2178ZM14.0365 17.0634L13.7335 16.4266C13.9322 16.3321 14.1247 16.2205 14.306 16.0951L14.7073 16.6751C14.495 16.822 14.2693 16.9526 14.0365 17.0634ZM8.36363 15.9081C8.19222 15.715 8.03525 15.5067 7.89712 15.2892L8.49252 14.9112C8.61046 15.097 8.74453 15.2749 8.89103 15.4399L8.36363 15.9081ZM15.8214 15.6044L15.2579 15.1803C15.3905 15.004 15.5097 14.8159 15.6121 14.6209L16.2364 14.9491C16.1163 15.1775 15.9767 15.3979 15.8214 15.6044ZM7.28935 13.8674C7.22767 13.6173 7.18585 13.3598 7.16504 13.102L7.86795 13.0454C7.88574 13.2654 7.92142 13.4852 7.97399 13.6985L7.28935 13.8674ZM16.7257 13.482L16.0294 13.3698C16.0643 13.1532 16.0821 12.9311 16.0821 12.7096V12.6996H16.7873V12.7096C16.7873 12.9686 16.7666 13.2285 16.7257 13.482ZM7.97192 11.7293L7.28685 11.5619C7.3482 11.3108 7.43055 11.063 7.53169 10.8252L8.18071 11.1013C8.09448 11.3039 8.02426 11.5152 7.97192 11.7293ZM15.8688 11.3984C15.7987 11.1898 15.711 10.9852 15.608 10.7905L16.2315 10.4609C16.3522 10.6893 16.4552 10.9292 16.5373 11.1738L15.8688 11.3984ZM8.8856 9.98552L8.35735 9.51835C8.5282 9.32518 8.71598 9.14424 8.91561 8.98066L9.36268 9.52609C9.19208 9.66592 9.03162 9.82044 8.8856 9.98552ZM14.8124 9.73742C14.6529 9.5848 14.4802 9.44416 14.2988 9.31919L14.6989 8.73842C14.9112 8.88462 15.1134 9.04933 15.3 9.22787L14.8124 9.73742ZM10.5036 8.86419L10.2523 8.20517C10.4936 8.11319 10.7442 8.04032 10.9973 7.98859L11.1386 8.67947C10.9229 8.72364 10.7092 8.7858 10.5036 8.86419ZM13.1064 8.75517C12.895 8.69448 12.6768 8.65054 12.4577 8.62463L12.5407 7.92432C12.7974 7.95476 13.0532 8.0062 13.3009 8.07737L13.1064 8.75517Z" fill="black"/>
</svg>
