<svg width="39" height="60" viewBox="0 0 39 60" fill="none" xmlns="http://www.w3.org/2000/svg">
<path d="M13.4707 17.0844V13.9187C13.4707 13.6465 13.5529 13.3806 13.7065 13.1558L18.2001 6.57971C19.3257 4.93244 18.9028 2.68473 17.2555 1.55913C15.6083 0.433521 13.3605 0.856428 12.2349 2.50371L7.21501 9.85016C6.58381 10.7739 6.24609 11.8668 6.24609 12.9856V23.1309V31.6883L14.095 26.3568L13.4707 17.0844Z" fill="#FFEFE7"/>
<path d="M22.7005 27.5934L24.7659 17.0559L16.681 23.8301L16.6869 23.8675C17.5388 23.7353 18.4352 23.9647 19.1326 24.5579L22.7005 27.5934ZM27.4292 11.4799L27.5182 11.4424C27.9254 11.1405 28.3724 10.8878 28.8487 10.6924C29.325 10.4969 29.8305 10.36 30.3571 10.2875C32.1978 10.0347 33.7986 11.5524 33.6453 13.4037L32.8004 23.6159C32.7641 24.0641 32.8472 24.5123 33.0426 24.9172L34.606 28.1493C36.6831 32.445 36.7533 37.4394 34.7991 41.7925L30.006 52.4658V57.8349C30.006 58.5458 29.4287 59.1215 28.7179 59.1196L9.59086 59.0691C8.88266 59.0672 8.3095 58.4925 8.3095 57.7843V53.3844L4.49819 48.5937C2.87864 46.5587 1.90505 44.0873 1.70143 41.4953L0.899852 31.3111C0.727834 29.1311 1.62303 27.0013 3.30108 25.5971L21.7854 10.1272C22.4618 9.55961 23.2856 9.28345 24.1047 9.28345C25.1357 9.28345 26.1608 9.72227 26.8746 10.5753C27.1086 10.855 27.2935 11.1604 27.4292 11.4799Z" fill="#FFEFE7"/>
<path d="M29.5352 10.4569C29.3005 10.5221 29.0702 10.6009 28.8475 10.6923C28.3713 10.8878 27.9243 11.1405 27.517 11.4424L27.4281 11.4799C27.2924 11.1604 27.1075 10.855 26.8734 10.5753C26.6935 10.3602 26.4937 10.1717 26.2791 10.0098L24.6622 17.1418L24.7649 17.0558L24.0488 20.7092L27.9292 17.4578C30.0136 15.71 30.5966 12.8247 29.5352 10.4569Z" fill="#FFE0D1"/>
<path d="M9.51471 23.4271L13.7093 20.6115L13.4718 17.0845V14.796L10.7724 17.0551C10.197 17.5367 9.32116 17.1276 9.32116 16.3773V13.7327C9.32116 12.6138 9.65888 11.5211 10.2901 10.5972L15.31 3.25075C15.8516 2.45807 16.6533 1.94985 17.5228 1.7604C17.4377 1.69007 17.3494 1.62267 17.2565 1.55913C15.6093 0.433521 13.3615 0.856428 12.2359 2.5037L7.21599 9.85016C6.58479 10.774 6.24707 11.8668 6.24707 12.9857V23.131V23.4269H9.51471V23.4271Z" fill="#FFD1C2"/>
<path d="M26.8739 10.5753C28.1552 12.1048 27.9539 14.3831 26.4257 15.6645L16.6803 23.8301L16.6862 23.8675C16.1327 23.9518 15.5979 24.1905 15.1497 24.5814L10.4467 28.6747L1.24902 28.5752C1.64455 27.4308 2.34549 26.3963 3.30037 25.5971L21.7847 10.1272C22.4611 9.55961 23.2849 9.28345 24.104 9.28345C25.135 9.28345 26.16 9.72227 26.8739 10.5753Z" fill="#FFEFE7"/>
<path d="M14.5791 59.069C13.8709 59.0671 13.2978 58.4924 13.2978 57.7842V55.3693C13.2978 54.0841 12.8621 52.8367 12.0619 51.8309L9.48648 48.5935C7.86693 46.5586 6.89333 44.0871 6.68972 41.4952L5.88814 31.311C5.71612 29.1309 6.61132 27.0012 8.28937 25.597L26.5949 10.2768C25.9061 9.62011 25.0078 9.28345 24.1047 9.28345C23.2856 9.28345 22.4618 9.55961 21.7854 10.1272L3.30108 25.5971C1.62303 27.0013 0.727834 29.1311 0.899852 31.3111L1.70143 41.4953C1.90505 44.0873 2.87864 46.5587 4.49819 48.5937L8.3095 53.3844V57.7843C8.3095 58.4925 8.88266 59.0672 9.59086 59.0691H14.5791V59.069Z" fill="#FFE0D1"/>
<path d="M27.9929 36.8376C28.818 35.8674 29.2724 34.6328 29.2724 33.3612C29.2724 31.7829 28.5831 30.2921 27.3823 29.272L23.0866 25.618L22.6994 27.5935L19.1315 24.558C18.6409 24.1407 18.0519 23.9042 17.4492 23.8462V38.8647C17.4492 41.3449 18.5378 43.7002 20.4271 45.3073C21.3965 46.1318 22.6308 46.5859 23.9025 46.5859C25.4809 46.5859 26.972 45.8967 27.993 44.6955C28.818 43.7252 29.2724 42.491 29.2724 41.2204C29.2724 39.7218 28.6498 38.3024 27.5579 37.2878C27.7102 37.146 27.8569 36.9975 27.9929 36.8376Z" fill="#FFE0D1"/>
<path d="M27.517 33.3613C27.517 34.1886 27.2338 35.0206 26.6558 35.7005C26.0765 36.3816 25.2995 36.7946 24.4804 36.9269L24.4617 36.9491L19.1314 32.4158C17.9811 31.4375 16.2879 31.4469 15.1493 32.4392L10.4463 36.5325V28.6747L15.1493 24.5814C15.5975 24.1905 16.1322 23.9518 16.6857 23.8676C17.5376 23.7353 18.434 23.9647 19.1314 24.558L22.6994 27.5934L26.245 30.609C27.0852 31.3228 27.517 32.3386 27.517 33.3613Z" fill="#FFEFE7"/>
<path d="M26.6279 35.7303C26.423 35.3609 26.1506 35.021 25.8096 34.7313L22.2639 31.7158L18.696 28.6803C17.9986 28.087 17.1022 27.8576 16.2503 27.9899C15.6968 28.0741 15.162 28.3128 14.7139 28.7037L11.2939 31.6803C10.7553 32.149 10.4463 32.8279 10.4463 33.5417V36.5325L15.1493 32.4392C16.2879 31.4468 17.9811 31.4375 19.1314 32.4158L24.4617 36.9491L24.4804 36.9268C25.2869 36.7966 26.0516 36.3929 26.6279 35.7303Z" fill="#FFE0D1"/>
<path d="M27.5161 41.2203C27.5161 42.0476 27.2329 42.8785 26.6548 43.5584C25.3629 45.0784 23.0822 45.2622 21.5633 43.9703L17.1599 40.2245L15.8528 41.5316L10.4453 36.5325L15.1483 32.4392C16.2869 31.4469 17.9802 31.4375 19.1305 32.4158L26.2441 38.4669C27.0843 39.1818 27.5161 40.1976 27.5161 41.2203Z" fill="#FFEFE7"/>
<path d="M33.8314 24.5347C33.7043 24.2718 33.6498 23.9791 33.6739 23.6882L34.5189 13.4758C34.6139 12.3265 34.1883 11.2123 33.3511 10.4191C32.5142 9.62579 31.3779 9.26081 30.2362 9.41714C29.3574 9.53767 28.5069 9.82449 27.7361 10.2568C27.6752 10.1733 27.6125 10.0909 27.5456 10.011C25.9552 8.11355 23.1179 7.86348 21.2207 9.45319L14.3481 15.205V13.9183C14.3481 13.8223 14.3766 13.7299 14.4308 13.6507L15.8562 11.5648C16.1297 11.1646 16.0269 10.6185 15.6267 10.345C15.2263 10.0713 14.6803 10.1743 14.4069 10.5745L12.9815 12.6603C12.7272 13.0324 12.5928 13.4674 12.5928 13.9183V16.6741L7.12331 21.2516V12.9853C7.12331 12.0392 7.40544 11.1262 7.93929 10.3451L12.9592 2.99865C13.3713 2.39553 13.9936 1.98901 14.7115 1.85397C15.4294 1.71893 16.1568 1.8714 16.7601 2.28366C17.3632 2.69569 17.7697 3.31811 17.9047 4.03602C18.0398 4.75382 17.8873 5.48144 17.4752 6.08444L16.5541 7.4325C16.2806 7.83282 16.3835 8.37883 16.7836 8.65231C17.1836 8.92578 17.7299 8.82292 18.0033 8.42283L18.9243 7.07477C19.6009 6.08456 19.8515 4.89014 19.6297 3.71153C19.408 2.53291 18.7405 1.51098 17.7503 0.834381C16.7602 0.157776 15.5658 -0.0927614 14.3869 0.12899C13.2083 0.350741 12.1865 1.01822 11.5099 2.00843L6.49 9.35489C5.75606 10.4291 5.36802 11.6845 5.36802 12.9854V22.7208L2.7358 24.9237C0.843952 26.5071 -0.170019 28.9207 0.0234139 31.3801L0.58218 38.4839C0.618339 38.9437 1.00263 39.2928 1.45619 39.2927C1.47925 39.2927 1.50253 39.2918 1.52594 39.29C2.00911 39.2521 2.37011 38.8294 2.33208 38.3464L1.77332 31.2426C1.62435 29.3483 2.40534 27.4893 3.86246 26.2699L22.3477 10.799C23.5034 9.83045 25.2318 9.98281 26.2003 11.1385C27.1688 12.2943 27.0166 14.0225 25.8608 14.9911L16.2384 23.055C15.6407 23.1995 15.0684 23.487 14.5725 23.9185L9.86928 28.0123C9.50371 28.3306 9.46533 28.8849 9.78351 29.2505C10.1018 29.616 10.656 29.6543 11.0218 29.3362L15.725 25.2425C16.543 24.5302 17.7365 24.5234 18.5627 25.2262L25.6761 31.2767C26.2325 31.75 26.5713 32.4116 26.63 33.1397C26.6889 33.8679 26.4606 34.5753 25.9873 35.1316C25.6412 35.5384 25.1839 35.8309 24.6769 35.9805L19.7001 31.7473C18.2074 30.4775 16.0509 30.4899 14.5726 31.7766L9.8694 35.8704C9.50383 36.1886 9.46545 36.743 9.78362 37.1085C10.1019 37.4742 10.6561 37.5125 11.0219 37.1943L15.7251 33.1005C16.5431 32.3883 17.7366 32.3813 18.5629 33.0843L25.6762 39.1347C26.2326 39.6081 26.5714 40.2697 26.6302 40.9978C26.689 41.726 26.4607 42.4334 25.9874 42.9897C25.5141 43.5461 24.8525 43.8849 24.1244 43.9436C23.3953 44.0022 22.6887 43.7741 22.1325 43.3008L17.7293 39.5555C17.3808 39.2591 16.8635 39.2801 16.5401 39.6034L15.2333 40.9101C14.8906 41.253 14.8906 41.8086 15.2333 42.1514C15.5761 42.494 16.1318 42.494 16.4744 42.1514L17.2087 41.4171L20.9951 44.6378C21.8144 45.3347 22.833 45.708 23.8969 45.708C24.0192 45.708 24.1423 45.703 24.2655 45.6931C25.4609 45.5966 26.5472 45.0403 27.3243 44.1268C28.1014 43.2132 28.4762 42.0518 28.3797 40.8563C28.2833 39.6608 27.727 38.5745 26.8134 37.7974L26.1592 37.241C26.5965 36.9869 26.9917 36.6595 27.3243 36.2686C28.9284 34.3828 28.6993 31.5435 26.8134 29.9392L23.6596 27.2567L25.5657 17.5281L26.9883 16.3359C27.9075 15.5657 28.4718 14.4835 28.5771 13.2887C28.6199 12.8024 28.5833 12.3216 28.4745 11.8598C29.0856 11.4953 29.7672 11.2527 30.4748 11.1558C31.0868 11.0716 31.6954 11.2676 32.1441 11.6927C32.5926 12.1178 32.8207 12.7147 32.7698 13.3307L31.9248 23.5431C31.8748 24.1462 31.9879 24.7533 32.2514 25.2984L33.8142 28.5306C35.7833 32.6032 35.8498 37.3057 33.9969 41.4325L32.992 43.6704C32.7934 44.1126 32.991 44.632 33.4332 44.8305C33.55 44.8829 33.672 44.9077 33.7922 44.9077C34.1271 44.9077 34.4471 44.7149 34.5933 44.3893L35.5981 42.1515C37.6642 37.5504 37.5899 32.3072 35.3945 27.7664L33.8314 24.5347ZM22.1262 25.9531L19.6998 23.8892C19.3945 23.6296 19.0612 23.4244 18.7119 23.272L23.4254 19.3221L22.1262 25.9531Z" fill="black"/>
<path d="M32.6118 46.6595C32.1696 46.461 31.6502 46.6582 31.4517 47.1007L29.204 52.1062C29.1532 52.2192 29.127 52.3417 29.127 52.4656V59.1224C29.127 59.6072 29.5198 60 30.0046 60C30.4894 60 30.8822 59.6072 30.8822 59.1224V52.6537L33.0529 47.8196C33.2515 47.3775 33.0539 46.8581 32.6118 46.6595Z" fill="black"/>
<path d="M27.5163 5.46175C28.0011 5.46175 28.394 5.06891 28.394 4.5841V0.877643C28.394 0.392833 28.0011 0 27.5163 0C27.0315 0 26.6387 0.392833 26.6387 0.877643V4.5841C26.6387 5.0688 27.0316 5.46175 27.5163 5.46175Z" fill="black"/>
<path d="M31.2632 6.33472C31.3985 6.41008 31.5449 6.44566 31.6895 6.44566C31.9976 6.44566 32.2966 6.28312 32.4571 5.9949L34.2605 2.75675C34.4963 2.33326 34.3442 1.79871 33.9208 1.56292C33.4973 1.32713 32.9628 1.47925 32.727 1.90263L30.9236 5.14078C30.6877 5.56439 30.8398 6.09881 31.2632 6.33472Z" fill="black"/>
<path d="M38.7554 6.04449C38.5002 5.63246 37.9594 5.50538 37.5472 5.76048L34.3961 7.71201C33.9841 7.96723 33.8569 8.5082 34.1121 8.92023C34.2781 9.18832 34.5652 9.33588 34.859 9.33588C35.0168 9.33588 35.1764 9.2934 35.3203 9.20423L38.4714 7.25271C38.8835 6.99761 39.0107 6.45663 38.7554 6.04449Z" fill="black"/>
<path d="M5.18346 48.047C3.80697 46.3172 2.92803 44.2417 2.64157 42.0449C2.57885 41.5644 2.13898 41.2264 1.65779 41.288C1.1772 41.3507 0.838308 41.7912 0.90103 42.2718C1.22868 44.7852 2.23458 47.1602 3.80989 49.1399L7.43093 53.6906V59.0652C7.43093 59.55 7.82388 59.9428 8.30857 59.9428C8.79326 59.9428 9.18621 59.55 9.18621 59.0652V53.384C9.18621 53.1856 9.11893 52.9928 8.99536 52.8375L5.18346 48.047Z" fill="black"/>
</svg>
