<svg width="21" height="24" viewBox="0 0 21 24" fill="none" xmlns="http://www.w3.org/2000/svg">
<path d="M19.6089 22.2858H1.29187C0.773079 22.2858 0.352539 22.7063 0.352539 23.2251V23.6478H20.5482V23.2251C20.5482 22.7063 20.1277 22.2858 19.6089 22.2858Z" fill="#ED9C87"/>
<path d="M7.91347 17.5421H5.09547L3.2168 22.2858H6.0348L7.91347 17.5421Z" fill="#CAD8EB"/>
<path d="M12.9863 17.5421H15.8043L17.683 22.2858H14.865L12.9863 17.5421Z" fill="#CAD8EB"/>
<path d="M10.45 20.0783C15.6378 20.0783 19.8433 15.8728 19.8433 10.685C19.8433 5.49717 15.6378 1.29163 10.45 1.29163C5.26219 1.29163 1.05664 5.49717 1.05664 10.685C1.05664 15.8728 5.26219 20.0783 10.45 20.0783Z" fill="#CAD8EB"/>
<path d="M10.4502 18.6692C6.0476 18.6692 2.46582 15.0875 2.46582 10.6849C2.46582 6.28234 6.0476 2.70056 10.4502 2.70056C14.8527 2.70056 18.4345 6.28234 18.4345 10.6849C18.4345 15.0875 14.8527 18.6692 10.4502 18.6692Z" fill="#C7EFBC"/>
<path d="M10.4502 17.2603C6.28501 17.2603 2.85513 14.0543 2.49724 9.98047C2.47686 10.2127 2.46582 10.4476 2.46582 10.685C2.46582 15.0875 6.0476 18.6693 10.4502 18.6693C14.8527 18.6693 18.4345 15.0875 18.4345 10.685C18.4345 10.4476 18.4235 10.2127 18.4031 9.98047C18.0452 14.0543 14.6153 17.2603 10.4502 17.2603Z" fill="#AAE79A"/>
<path d="M10.4502 10.6849H18.4345C18.4345 8.48361 17.5391 6.48752 16.0933 5.04175L10.4502 10.6849Z" fill="#C7EFBC"/>
<path d="M16.0933 5.04176C14.6476 3.59598 12.6515 2.70056 10.4502 2.70056V10.6849L16.0933 5.04176Z" fill="#FAEF93"/>
<path d="M10.4502 10.6849L16.0933 16.3281C17.5391 14.8823 18.4345 12.8862 18.4345 10.6849H10.4502Z" fill="#FAEF93"/>
<path d="M10.4502 10.6849L4.80702 5.04175C3.36124 6.48752 2.46582 8.48361 2.46582 10.6849H10.4502Z" fill="#FAEF93"/>
<path d="M10.4498 10.6849L4.80664 16.3281C6.25242 17.7739 8.2485 18.6693 10.4498 18.6693V10.6849Z" fill="#FAEF93"/>
<path d="M2.46582 10.6849C2.46582 12.8862 3.36124 14.8823 4.80702 16.3281L10.4502 10.6849H2.46582Z" fill="#C7EFBC"/>
<path d="M10.45 12.5636C9.41406 12.5636 8.57129 11.7208 8.57129 10.6849C8.57129 9.64905 9.41406 8.80627 10.45 8.80627C11.4859 8.80627 12.3286 9.64905 12.3286 10.6849C12.3286 11.7208 11.4859 12.5636 10.45 12.5636Z" fill="#ED9C87"/>
<path d="M10.4505 5.04897L8.80664 0.352295H12.0943L10.4505 5.04897Z" fill="#ED9C87"/>
<path d="M10.45 18.6693C5.49918 18.6693 1.44318 14.8392 1.08289 9.98047C1.06566 10.213 1.05664 10.448 1.05664 10.685C1.05664 15.8728 5.26218 20.0783 10.45 20.0783C15.6378 20.0783 19.8433 15.8728 19.8433 10.685C19.8433 10.448 19.8344 10.213 19.8171 9.98047C19.4568 14.8392 15.4008 18.6693 10.45 18.6693Z" fill="#B0C5E0"/>
<path d="M4.80664 16.3281C6.25242 17.7739 8.2485 18.6693 10.4498 18.6693V17.2603C8.60681 17.2603 6.90793 16.6323 5.55515 15.5796L4.80664 16.3281Z" fill="#F8E868"/>
<path d="M2.59033 10.6849H2.46582C2.46582 12.8862 3.36124 14.8823 4.80702 16.3281L5.55553 15.5796C4.02953 14.392 2.94408 12.6637 2.59033 10.6849Z" fill="#AAE79A"/>
<path d="M15.3447 15.5796L16.0932 16.3281C17.539 14.8823 18.4344 12.8862 18.4344 10.6849H18.3099C17.9561 12.6637 16.8707 14.392 15.3447 15.5796Z" fill="#F8E868"/>
<path d="M10.45 11.1546C9.66312 11.1546 8.98817 10.6682 8.70885 9.98047C8.62042 10.1982 8.57129 10.4359 8.57129 10.685C8.57129 11.7209 9.41406 12.5636 10.45 12.5636C11.4859 12.5636 12.3286 11.7209 12.3286 10.685C12.3286 10.4359 12.2795 10.1982 12.1911 9.98047C11.9118 10.6682 11.2368 11.1546 10.45 11.1546Z" fill="#E46A4A"/>
<path d="M6.59281 20.8767H3.77481L3.2168 22.2857H6.0348L6.59281 20.8767Z" fill="#B0C5E0"/>
<path d="M14.8647 22.2857H17.6827L17.1246 20.8767H14.3066L14.8647 22.2857Z" fill="#B0C5E0"/>
<path d="M12.5127 16.567L13.1637 16.2972L13.4335 16.9481L12.7825 17.2179L12.5127 16.567Z" fill="white"/>
<path d="M16.0723 13.3934L16.3421 12.7425L16.993 13.0123L16.7232 13.6632L16.0723 13.3934Z" fill="white"/>
<path d="M16.0693 7.97327L16.7203 7.70346L16.9901 8.35442L16.3392 8.62423L16.0693 7.97327Z" fill="white"/>
<path d="M12.5117 4.80042L12.7815 4.1495L13.4325 4.41932L13.1627 5.07024L12.5117 4.80042Z" fill="white"/>
<path d="M7.47656 4.41736L8.12752 4.14753L8.39733 4.79845L7.74637 5.06827L7.47656 4.41736Z" fill="white"/>
<path d="M3.91797 8.36121L4.18779 7.71025L4.83875 7.98007L4.56893 8.63103L3.91797 8.36121Z" fill="white"/>
<path d="M3.91992 13.0104L4.57088 12.7406L4.8407 13.3915L4.18975 13.6613L3.91992 13.0104Z" fill="white"/>
<path d="M7.47852 16.9546L7.74832 16.3037L8.39928 16.5735L8.12947 17.2244L7.47852 16.9546Z" fill="white"/>
<path d="M10.0977 10.3328H10.8022V11.0373H10.0977V10.3328Z" fill="white"/>
<path d="M19.609 21.9335H17.9227L16.4949 18.3283C18.5273 16.7172 19.8965 14.3169 20.1523 11.6142L19.4509 11.5479C19.0694 15.5787 16.0187 18.8851 12.0321 19.5883L12.1544 20.282C12.6337 20.1975 13.1004 20.0778 13.552 19.9262L14.347 21.9335H11.5844V22.638H19.609C19.9327 22.638 20.1961 22.9014 20.1961 23.2251V23.2955H6.00879V24H20.9006V23.2251C20.9006 22.5129 20.3211 21.9335 19.609 21.9335ZM15.1047 21.9335L14.2113 19.6777C14.81 19.4269 15.3777 19.1183 15.9077 18.7589L17.165 21.9335H15.1047Z" fill="black"/>
<path d="M0.704501 23.2251C0.704501 22.9013 0.967843 22.638 1.29159 22.638H10.8795V21.9335H6.5536L7.34949 19.9237C8.18283 20.2043 9.06312 20.3751 9.97169 20.419L10.0057 19.7153C5.96177 19.5197 2.51723 16.6257 1.62928 12.6777L0.941918 12.8323C1.44282 15.0595 2.69871 16.9751 4.40665 18.326L2.97788 21.9335H1.29159C0.579382 21.9335 0 22.5129 0 23.2251V24H5.30391V23.2955H0.704501V23.2251ZM4.99397 18.7562C5.52568 19.1161 6.0936 19.4246 6.69022 19.675L5.79584 21.9335H3.73559L4.99397 18.7562Z" fill="black"/>
<path d="M12.5903 0H8.30957L10.4499 6.11521L12.5903 0ZM11.5973 0.704501L10.4499 3.98264L9.30259 0.704501H11.5973Z" fill="black"/>
<path d="M19.4917 10.6849C19.4917 10.7471 19.4911 10.8091 19.4898 10.8709L20.1941 10.8851C20.1955 10.8185 20.1962 10.7518 20.1962 10.6849C20.1962 10.5088 20.1914 10.3306 20.182 10.1552L19.4785 10.1928C19.4873 10.3557 19.4917 10.5213 19.4917 10.6849Z" fill="black"/>
<path d="M0.808584 12.114L1.50562 12.0115C1.47293 11.7893 1.44822 11.5625 1.43221 11.3378L0.729492 11.3878C0.746729 11.6301 0.773359 11.8744 0.808584 12.114Z" fill="black"/>
<path d="M19.4167 9.51773L20.1154 9.42769C19.8686 7.51225 19.0633 5.72869 17.7865 4.26999C16.5209 2.82398 14.8779 1.79236 13.0351 1.28662L12.8486 1.96599C16.3721 2.93299 18.9502 5.89725 19.4167 9.51773Z" fill="black"/>
<path d="M8.0512 1.96599L7.86474 1.28662C5.85006 1.83951 4.03155 3.05811 2.7442 4.71787C1.41537 6.43117 0.709925 8.48535 0.704102 10.6584L1.4086 10.6602C1.4194 6.61162 4.15094 3.03641 8.0512 1.96599Z" fill="black"/>
<path d="M10.7014 20.4274C10.9444 20.4212 11.1896 20.4059 11.4302 20.3818L11.3601 19.6808C11.1368 19.7031 10.9092 19.7173 10.6836 19.723L10.7014 20.4274Z" fill="black"/>
<path d="M18.7865 10.685C18.7865 6.89764 16.2276 3.58132 12.5638 2.62024L12.385 3.30173C13.6105 3.62317 14.7006 4.23265 15.5911 5.04555L11.7575 8.87917C11.48 8.67773 11.1548 8.53838 10.8021 8.48216V6.92765H10.0976V8.48216C9.74481 8.53838 9.41961 8.67773 9.14213 8.87917L5.30857 5.04555C6.19906 4.23265 7.2892 3.62317 8.51461 3.30173L8.33586 2.62024C4.67212 3.58132 2.11328 6.89764 2.11328 10.685C2.11328 15.2818 5.85305 19.0216 10.4499 19.0216C15.0467 19.0216 18.7865 15.2818 18.7865 10.685ZM4.81053 5.54382L8.64405 9.37734C8.44261 9.65478 8.30326 9.98002 8.24704 10.3327H2.8261C2.90965 8.51381 3.63684 6.83222 4.81053 5.54382ZM10.0976 18.3087C8.25836 18.2247 6.58677 17.4869 5.31059 16.3225L6.2162 15.4168L5.71807 14.9187L4.81241 15.8243C3.64797 14.5481 2.91021 12.8765 2.82619 11.0372H8.247C8.30321 11.39 8.44252 11.7152 8.64401 11.9926L6.2162 14.4204L6.71433 14.9186L9.14218 12.4908C9.41961 12.6923 9.74486 12.8316 10.0976 12.8878V18.3087ZM8.92346 10.685C8.92346 9.8433 9.60823 9.15857 10.4499 9.15857C11.2916 9.15857 11.9763 9.8433 11.9763 10.685C11.9763 11.5267 11.2916 12.2114 10.4499 12.2114C9.60823 12.2114 8.92346 11.5267 8.92346 10.685ZM10.8021 18.3087V12.8878C11.1549 12.8316 11.4801 12.6923 11.7575 12.4908L15.5892 16.3225C14.3129 17.4869 12.6414 18.2247 10.8021 18.3087ZM12.2557 11.9926C12.4571 11.7152 12.5965 11.39 12.6527 11.0372H16.0859V10.3327H12.6527C12.5965 9.98002 12.4572 9.65478 12.2557 9.37734L16.0892 5.54382C17.2629 6.83226 17.9901 8.51386 18.0736 10.3327H16.7904V11.0372H18.0736C17.9896 12.8765 17.2518 14.5481 16.0873 15.8243L12.2557 11.9926Z" fill="black"/>
</svg>
