<svg width="62" height="16" viewBox="0 0 62 16" fill="none" xmlns="http://www.w3.org/2000/svg">
<path d="M0.824 12V0.799999H5.016C5.96533 0.799999 6.78133 0.954666 7.464 1.264C8.14667 1.56267 8.66933 2 9.032 2.576C9.40533 3.14133 9.592 3.82933 9.592 4.64C9.592 5.42933 9.40533 6.112 9.032 6.688C8.66933 7.25333 8.14667 7.69067 7.464 8C6.78133 8.29867 5.96533 8.448 5.016 8.448H1.48L2.008 7.904V12H0.824ZM8.472 12L5.592 7.936H6.872L9.768 12H8.472ZM2.008 8L1.48 7.44H4.984C6.104 7.44 6.952 7.19467 7.528 6.704C8.11467 6.21333 8.408 5.52533 8.408 4.64C8.408 3.744 8.11467 3.05067 7.528 2.56C6.952 2.06933 6.104 1.824 4.984 1.824H1.48L2.008 1.264V8ZM16.0345 12.08C15.1598 12.08 14.3918 11.8987 13.7305 11.536C13.0692 11.1627 12.5518 10.656 12.1785 10.016C11.8052 9.36533 11.6185 8.624 11.6185 7.792C11.6185 6.96 11.7945 6.224 12.1465 5.584C12.5092 4.944 12.9998 4.44267 13.6185 4.08C14.2478 3.70667 14.9518 3.52 15.7305 3.52C16.5198 3.52 17.2185 3.70133 17.8265 4.064C18.4452 4.416 18.9305 4.91733 19.2825 5.568C19.6345 6.208 19.8105 6.94933 19.8105 7.792C19.8105 7.84533 19.8052 7.904 19.7945 7.968C19.7945 8.02133 19.7945 8.08 19.7945 8.144H12.4825V7.296H19.1865L18.7385 7.632C18.7385 7.024 18.6052 6.48533 18.3385 6.016C18.0825 5.536 17.7305 5.16267 17.2825 4.896C16.8345 4.62933 16.3172 4.496 15.7305 4.496C15.1545 4.496 14.6372 4.62933 14.1785 4.896C13.7198 5.16267 13.3625 5.536 13.1065 6.016C12.8505 6.496 12.7225 7.04533 12.7225 7.664V7.84C12.7225 8.48 12.8612 9.04533 13.1385 9.536C13.4265 10.016 13.8212 10.3947 14.3225 10.672C14.8345 10.9387 15.4158 11.072 16.0665 11.072C16.5785 11.072 17.0532 10.9813 17.4905 10.8C17.9385 10.6187 18.3225 10.3413 18.6425 9.968L19.2825 10.704C18.9092 11.152 18.4398 11.4933 17.8745 11.728C17.3198 11.9627 16.7065 12.08 16.0345 12.08ZM26.7787 12.08C26.0534 12.08 25.3974 11.9147 24.8107 11.584C24.2241 11.2427 23.7547 10.7573 23.4027 10.128C23.0614 9.488 22.8907 8.70933 22.8907 7.792C22.8907 6.87467 23.0614 6.10133 23.4027 5.472C23.7441 4.832 24.2081 4.34667 24.7947 4.016C25.3814 3.68533 26.0427 3.52 26.7787 3.52C27.5787 3.52 28.2934 3.70133 28.9227 4.064C29.5627 4.416 30.0641 4.91733 30.4268 5.568C30.7894 6.208 30.9707 6.94933 30.9707 7.792C30.9707 8.64533 30.7894 9.392 30.4268 10.032C30.0641 10.672 29.5627 11.1733 28.9227 11.536C28.2934 11.8987 27.5787 12.08 26.7787 12.08ZM22.4427 15.104V3.6H23.5307V6.128L23.4187 7.808L23.5787 9.504V15.104H22.4427ZM26.6987 11.072C27.2961 11.072 27.8294 10.9387 28.2987 10.672C28.7681 10.3947 29.1414 10.0107 29.4187 9.52C29.6961 9.01867 29.8348 8.44267 29.8348 7.792C29.8348 7.14133 29.6961 6.57067 29.4187 6.08C29.1414 5.58933 28.7681 5.20533 28.2987 4.928C27.8294 4.65067 27.2961 4.512 26.6987 4.512C26.1014 4.512 25.5627 4.65067 25.0827 4.928C24.6134 5.20533 24.2401 5.58933 23.9627 6.08C23.6961 6.57067 23.5627 7.14133 23.5627 7.792C23.5627 8.44267 23.6961 9.01867 23.9627 9.52C24.2401 10.0107 24.6134 10.3947 25.0827 10.672C25.5627 10.9387 26.1014 11.072 26.6987 11.072ZM37.1745 12.08C36.2998 12.08 35.5318 11.8987 34.8705 11.536C34.2092 11.1627 33.6918 10.656 33.3185 10.016C32.9452 9.36533 32.7585 8.624 32.7585 7.792C32.7585 6.96 32.9345 6.224 33.2865 5.584C33.6492 4.944 34.1398 4.44267 34.7585 4.08C35.3878 3.70667 36.0918 3.52 36.8705 3.52C37.6598 3.52 38.3585 3.70133 38.9665 4.064C39.5852 4.416 40.0705 4.91733 40.4225 5.568C40.7745 6.208 40.9505 6.94933 40.9505 7.792C40.9505 7.84533 40.9452 7.904 40.9345 7.968C40.9345 8.02133 40.9345 8.08 40.9345 8.144H33.6225V7.296H40.3265L39.8785 7.632C39.8785 7.024 39.7452 6.48533 39.4785 6.016C39.2225 5.536 38.8705 5.16267 38.4225 4.896C37.9745 4.62933 37.4572 4.496 36.8705 4.496C36.2945 4.496 35.7772 4.62933 35.3185 4.896C34.8598 5.16267 34.5025 5.536 34.2465 6.016C33.9905 6.496 33.8625 7.04533 33.8625 7.664V7.84C33.8625 8.48 34.0012 9.04533 34.2785 9.536C34.5665 10.016 34.9612 10.3947 35.4625 10.672C35.9745 10.9387 36.5558 11.072 37.2065 11.072C37.7185 11.072 38.1932 10.9813 38.6305 10.8C39.0785 10.6187 39.4625 10.3413 39.7825 9.968L40.4225 10.704C40.0492 11.152 39.5798 11.4933 39.0145 11.728C38.4598 11.9627 37.8465 12.08 37.1745 12.08ZM48.6124 12V10.144L48.5644 9.84V6.736C48.5644 6.02133 48.3617 5.472 47.9564 5.088C47.5617 4.704 46.9697 4.512 46.1804 4.512C45.6364 4.512 45.119 4.60267 44.6284 4.784C44.1377 4.96533 43.7217 5.20533 43.3804 5.504L42.8684 4.656C43.295 4.29333 43.807 4.016 44.4044 3.824C45.0017 3.62133 45.631 3.52 46.2924 3.52C47.3804 3.52 48.2177 3.792 48.8044 4.336C49.4017 4.86933 49.7004 5.68533 49.7004 6.784V12H48.6124ZM45.7164 12.08C45.087 12.08 44.5377 11.9787 44.0684 11.776C43.6097 11.5627 43.2577 11.2747 43.0124 10.912C42.767 10.5387 42.6444 10.112 42.6444 9.632C42.6444 9.19467 42.7457 8.8 42.9484 8.448C43.1617 8.08533 43.503 7.79733 43.9724 7.584C44.4524 7.36 45.0924 7.248 45.8924 7.248H48.7884V8.096H45.9244C45.1137 8.096 44.5484 8.24 44.2284 8.528C43.919 8.816 43.7644 9.17333 43.7644 9.6C43.7644 10.08 43.951 10.464 44.3244 10.752C44.6977 11.04 45.2204 11.184 45.8924 11.184C46.5324 11.184 47.0817 11.04 47.5404 10.752C48.0097 10.4533 48.351 10.0267 48.5644 9.472L48.8204 10.256C48.607 10.8107 48.2337 11.2533 47.7004 11.584C47.1777 11.9147 46.5164 12.08 45.7164 12.08ZM55.7619 12.08C54.9725 12.08 54.3645 11.8667 53.9379 11.44C53.5112 11.0133 53.2979 10.4107 53.2979 9.632V1.744H54.4339V9.568C54.4339 10.0587 54.5565 10.4373 54.8019 10.704C55.0579 10.9707 55.4205 11.104 55.8899 11.104C56.3912 11.104 56.8072 10.96 57.1379 10.672L57.5379 11.488C57.3139 11.6907 57.0419 11.84 56.7219 11.936C56.4125 12.032 56.0925 12.08 55.7619 12.08ZM51.7939 4.544V3.6H56.9939V4.544H51.7939ZM60.1941 12.08C59.9595 12.08 59.7568 11.9947 59.5861 11.824C59.4261 11.6533 59.3461 11.4453 59.3461 11.2C59.3461 10.944 59.4261 10.736 59.5861 10.576C59.7568 10.416 59.9595 10.336 60.1941 10.336C60.4288 10.336 60.6261 10.416 60.7861 10.576C60.9568 10.736 61.0421 10.944 61.0421 11.2C61.0421 11.4453 60.9568 11.6533 60.7861 11.824C60.6261 11.9947 60.4288 12.08 60.1941 12.08Z" fill="#130F0A"/>
</svg>
