<svg width="628" height="583" viewBox="0 0 628 583" fill="none" xmlns="http://www.w3.org/2000/svg">
<path d="M136.668 19.2832C169.185 -1.91572 212.557 -5.28666 247.943 10.6352C290.699 29.8174 317.998 72.5408 357.299 98.0856C408.296 131.197 473.095 131.89 530.958 150.484C599.891 172.598 657.654 219.597 713.558 265.586C750.696 296.128 789.544 329.019 805.225 374.479C826.628 436.544 792.838 512.306 732.433 537.871C629.936 581.25 511.529 485.728 404.78 517.259C349.477 533.594 304.11 582.848 246.42 582.797C178.103 582.696 131.669 515.176 100.801 454.239C77.3008 407.873 55.4317 360.703 33.5287 313.56C15.8322 275.364 -2.30896 235.084 0.549253 193.057C4.07915 141.181 35.4941 134.221 68.1989 106.941C96.9975 82.8908 101.986 41.9347 136.662 19.3441L136.668 19.2832Z" fill="#F2FFFA"/>
</svg>
